<svg width="824" height="512" viewBox="0 0 824 512" fill="none" xmlns="http://www.w3.org/2000/svg">
<g opacity="0.5">
<rect y="312" width="96" height="96" fill="white" fill-opacity="0.02"/>
<rect y="104" width="96" height="96" fill="#2A2C32" fill-opacity="0.4"/>
<rect x="104" y="416" width="96" height="96" fill="white" fill-opacity="0.1"/>
<rect x="104" y="208" width="96" height="96" fill="#2A2C32"/>
<rect x="104" y="104" width="96" height="96" fill="#2A2C32" fill-opacity="0.5"/>
<rect x="208" y="416" width="96" height="96" fill="white" fill-opacity="0.04"/>
<rect x="208" width="96" height="96" fill="#2A2C32" fill-opacity="0.6"/>
<rect x="312" y="416" width="96" height="96" fill="white" fill-opacity="0.1"/>
<rect x="312" y="104" width="96" height="96" fill="#2A2C32" fill-opacity="0.5"/>
<rect x="520" y="104" width="96" height="96" fill="#2A2C32" fill-opacity="0.5"/>
<rect x="624" y="416" width="96" height="96" fill="white" fill-opacity="0.1"/>
<rect x="728" y="416" width="96" height="96" fill="white" fill-opacity="0.1"/>
<rect x="728" y="312" width="96" height="96" fill="white" fill-opacity="0.05"/>
<rect x="728" y="104" width="96" height="96" fill="#2A2C32" fill-opacity="0.8"/>
</g>
<rect x="520" y="416" width="96" height="96" fill="#FF6F29" fill-opacity="0.1"/>
<rect x="521" y="417" width="94" height="94" stroke="#FF6F29" stroke-opacity="0.8" stroke-width="2"/>
<rect x="624" y="208" width="96" height="96" fill="#FF6F29" fill-opacity="0.1"/>
<rect x="625" y="209" width="94" height="94" stroke="#FF6F29" stroke-opacity="0.8" stroke-width="2"/>
<path d="M304 360H512.253C524.403 360 534.253 350.15 534.253 338V277C534.253 264.85 544.103 255 556.253 255H624" stroke="white"/>
<path d="M304 360H437.358C449.508 360 459.358 369.85 459.358 382V447C459.358 459.15 469.208 469 481.358 469H521" stroke="white"/>
<path d="M305 360H650C662.15 360 672 369.85 672 382V416" stroke="white" stroke-opacity="0.2"/>
<path d="M259 312V280C259 267.85 249.15 258 237 258H200" stroke="white" stroke-opacity="0.2"/>
<circle cx="301" cy="360" r="15" fill="#767B8A"/>
<circle cx="259" cy="315" r="15" fill="#757A89"/>
<rect x="208" y="312" width="96" height="96" fill="#FF6F29"/>
<rect x="209" y="313" width="94" height="94" stroke="#FF6F29" stroke-opacity="0.8" stroke-width="2"/>
<path d="M254 356H245V365H254V356Z" fill="black"/>
<path d="M278 378.456V369.136L256.025 376.68L242.8 372.144V344.777H269.2V355.822H256.074V364.649H278V336H234V378.456L256.025 386L278 378.456Z" fill="white"/>
<g clip-path="url(#clip0_2372_7944)">
<path d="M673.773 228C674.735 228.101 675.698 228.196 676.659 228.305C683.149 229.044 689.081 231.153 694.271 235.149C695.191 235.857 695.594 236.661 695.674 237.781C696.08 243.488 696.1 249.2 695.776 254.906C695.456 260.561 693.137 265.485 689.664 269.918C685.027 275.835 679.149 280.3 672.537 283.881C672.281 284.02 671.819 284.045 671.573 283.91C663.983 279.776 657.327 274.593 652.554 267.339C649.706 263.01 648.209 258.268 648.167 253.094C648.157 252.098 648.057 251.103 648 250.108C648 247.916 648 245.724 648 243.532C648.044 243.26 648.111 242.99 648.128 242.717C648.239 240.95 648.379 239.184 648.424 237.416C648.447 236.543 648.792 235.953 649.468 235.411C654.682 231.234 660.721 229.084 667.33 228.308C668.289 228.194 669.252 228.102 670.213 228C671.399 228 672.587 228 673.773 228ZM675.84 263.463C676.236 263.641 676.481 263.796 676.75 263.865C678.442 264.294 680.146 264.676 681.831 265.131C682.698 265.365 683.3 265.083 683.921 264.507C688.487 260.267 690.368 255.109 689.326 249.014C687.711 239.554 678.23 233.14 668.735 235.016C658.736 236.992 652.539 246.523 654.893 256.289C656.323 262.218 660.023 266.417 665.258 269.429C669.334 271.776 673.788 273.082 678.403 273.945C679.11 274.076 679.659 273.973 680.156 273.515C681.45 272.322 682.739 271.121 684.019 269.914C684.196 269.746 684.315 269.519 684.505 269.26C684.301 269.196 684.197 269.15 684.088 269.131C682.152 268.796 680.203 268.531 678.287 268.116C674.388 267.27 670.595 266.13 667.189 263.979C661.956 260.677 659.565 255.697 660.549 250.078C661.876 242.501 670.264 238.314 677.261 241.738C682.778 244.437 685.333 251.197 682.625 256.387C681.19 259.136 679.034 261.224 676.502 262.983C676.317 263.113 676.134 263.25 675.84 263.463Z" fill="white"/>
</g>
<g clip-path="url(#clip1_2372_7944)">
<path d="M538 459.653C538 459.31 538 458.969 538 458.626C538.286 456.862 539.395 455.603 540.578 454.39C540.638 454.328 540.69 454.261 540.748 454.197C545.589 448.738 550.451 443.295 555.263 437.807C556.461 436.441 557.708 435.256 559.588 435C559.844 435 560.099 435 560.355 435C560.624 435.055 560.892 435.114 561.162 435.167C569.406 436.783 577.653 438.39 585.894 440.024C587.77 440.397 589.063 441.534 589.724 443.342C590.178 444.585 590.573 445.851 590.993 447.107C593.215 453.752 595.426 460.4 597.664 467.041C598.326 469.004 598.019 470.769 596.665 472.302C591.113 478.587 585.538 484.852 579.973 491.127C578.577 492.701 576.863 493.281 574.802 492.875C566.623 491.261 558.442 489.651 550.261 488.045C548.272 487.655 546.919 486.517 546.275 484.583C543.511 476.274 540.758 467.963 538 459.653ZM586.033 464.043C586.033 461.049 586.019 458.053 586.041 455.059C586.049 454.035 585.649 453.318 584.763 452.804C579.589 449.805 574.423 446.787 569.256 443.774C568.427 443.29 567.614 443.287 566.78 443.774C561.576 446.81 556.369 449.839 551.162 452.87C550.396 453.316 550.006 453.982 550.006 454.871C550.005 460.968 550.006 467.064 550.006 473.159C550.006 474.075 550.406 474.748 551.197 475.206C556.406 478.233 561.613 481.262 566.816 484.298C567.633 484.776 568.423 484.767 569.23 484.297C574.416 481.274 579.601 478.251 584.792 475.236C585.647 474.739 586.047 474.027 586.041 473.027C586.02 470.033 586.033 467.037 586.033 464.043ZM585.963 451.439C585.92 451.268 585.92 451.221 585.898 451.188C584.121 448.373 582.359 445.548 580.556 442.752C580.006 441.9 579.131 441.551 578.13 441.597C575.772 441.706 573.415 441.836 571.057 441.961C570.718 441.979 570.381 442.018 570.044 442.049C570.044 442.093 570.045 442.135 570.045 442.179C575.321 445.246 580.595 448.316 585.963 451.439ZM565.952 486.023C565.964 485.973 565.975 485.924 565.987 485.874C560.729 482.814 555.472 479.754 550.152 476.658C550.166 476.82 550.157 476.868 550.175 476.897C551.937 479.695 553.69 482.499 555.471 485.286C556.04 486.175 556.931 486.493 557.953 486.448C559.526 486.378 561.097 486.296 562.668 486.213C563.763 486.154 564.858 486.086 565.952 486.023ZM594.638 463.445C594.274 464.275 594.013 464.975 593.671 465.631C590.717 471.289 587.75 476.937 584.788 482.589C584.691 482.774 584.606 482.965 584.516 483.154C588.253 479.106 591.894 475.01 595.517 470.898C596.074 470.267 596.39 469.436 596.189 468.632C595.757 466.901 595.176 465.209 594.638 463.445ZM541.39 464.412C544.649 457.875 548.173 451.447 551.459 444.889C550.239 446.179 549.067 447.501 547.896 448.822C545.491 451.534 543.083 454.243 540.68 456.958C539.796 457.957 539.584 459.094 540.022 460.357C540.121 460.639 540.202 460.927 540.298 461.209C540.674 462.313 541.05 463.416 541.39 464.412ZM548.189 473.749C548.189 467.515 548.189 461.424 548.189 455.262C548.102 455.361 548.055 455.398 548.029 455.447C546.555 458.261 545.079 461.076 543.61 463.894C543.101 464.871 543.181 465.832 543.757 466.754C544.865 468.525 545.979 470.294 547.094 472.062C547.429 472.592 547.776 473.115 548.189 473.749ZM587.837 472.702C587.877 472.709 587.916 472.715 587.956 472.722C589.486 469.789 591.037 466.867 592.537 463.917C592.961 463.084 592.838 462.198 592.342 461.403C590.987 459.229 589.615 457.067 588.246 454.901C588.143 454.74 588.021 454.591 587.836 454.338C587.837 460.571 587.837 466.637 587.837 472.702ZM543.018 468.924C542.987 468.934 542.955 468.944 542.924 468.954C542.946 469.051 542.959 469.15 542.99 469.242C544.657 474.22 546.313 479.201 548.005 484.17C548.379 485.27 549.195 485.985 550.34 486.24C551.584 486.517 552.838 486.748 554.09 486.993C554.201 487.015 554.319 486.996 554.426 486.996C550.611 480.952 546.814 474.938 543.018 468.924ZM581.548 440.962C585.412 447.083 589.2 453.083 592.989 459.083C593.028 458.826 592.975 458.621 592.908 458.422C592.047 455.85 591.182 453.28 590.323 450.709C589.605 448.562 588.891 446.415 588.178 444.265C587.809 443.152 587.179 442.232 586.014 441.922C584.581 441.542 583.113 441.292 581.548 440.962ZM585.764 476.913C585.729 476.87 585.696 476.828 585.661 476.786C580.572 479.748 575.484 482.711 570.395 485.673C573.627 485.646 576.792 485.498 579.957 485.304C580.824 485.251 581.572 484.834 581.998 484.045C583.271 481.678 584.511 479.292 585.764 476.913ZM565.613 442.396C565.6 442.354 565.587 442.311 565.575 442.267C565.494 442.267 565.412 442.264 565.331 442.267C562.317 442.415 559.302 442.56 556.287 442.713C555.142 442.771 554.339 443.367 553.814 444.369C552.717 446.466 551.621 448.564 550.526 450.664C550.434 450.841 550.362 451.028 550.217 451.352C555.444 448.313 560.528 445.354 565.613 442.396ZM554.765 441.037C561.714 440.673 568.614 440.311 575.661 439.941C575.47 439.825 575.426 439.779 575.374 439.769C570.432 438.802 565.49 437.835 560.548 436.875C559.641 436.699 558.739 436.857 558.091 437.481C556.917 438.611 555.854 439.859 554.765 441.037ZM581.239 487.027C574.331 487.382 567.452 487.737 560.574 488.093C560.74 488.272 560.91 488.335 561.087 488.37C565.882 489.312 570.676 490.259 575.474 491.187C576.499 491.385 577.454 491.115 578.181 490.378C579.253 489.288 580.248 488.121 581.239 487.027Z" fill="white"/>
</g>
<defs>
<clipPath id="clip0_2372_7944">
<rect width="48" height="56" fill="white" transform="translate(648 228)"/>
</clipPath>
<clipPath id="clip1_2372_7944">
<rect width="60" height="58" fill="white" transform="translate(538 435)"/>
</clipPath>
</defs>
</svg>
