<svg width="172" height="132" viewBox="0 0 172 132" fill="none" xmlns="http://www.w3.org/2000/svg">
<path d="M90.7745 51.396L147.73 17.5784L154.257 19.9515L139.424 75.7209L104.42 114.878H11.2734L25.5124 86.9934L45.091 71.5679L90.7745 51.396Z" stroke="#C8C8C8" stroke-width="1.89764"/>
<path d="M43.3086 78.6872L99.6713 108.352L102.044 101.232L90.7719 56.1421H95.5182L134.675 70.3811" stroke="#C8C8C8" stroke-width="1.89764"/>
<circle cx="33.8169" cy="75.1277" r="18.6298" fill="#E6E6E6" stroke="#C8C8C8" stroke-width="1.89764"/>
<circle cx="88.9937" cy="51.9893" r="9.73042" fill="#E6E6E6" stroke="#C8C8C8" stroke-width="1.89764"/>
<circle cx="10.6792" cy="120.811" r="9.73042" fill="#E6E6E6" stroke="#C8C8C8" stroke-width="1.89764"/>
<circle cx="103.826" cy="111.912" r="13.8835" fill="#E6E6E6" stroke="#C8C8C8" stroke-width="1.89764"/>
<circle cx="156.035" cy="15.7986" r="13.8835" fill="#E6E6E6" stroke="#C8C8C8" stroke-width="1.89764"/>
<circle cx="143.465" cy="69.485" r="27.5157" fill="#E6E6E6" stroke="#FF6F29" stroke-width="1.89764"/>
<g clip-path="url(#clip0_2353_9361)">
<path d="M158.965 69.4849C158.965 78.0472 152.025 84.9849 143.465 84.9849C134.905 84.9849 127.965 78.0472 127.965 69.4849C127.965 60.9276 134.905 53.9849 143.465 53.9849C152.025 53.9849 158.965 60.9276 158.965 69.4849ZM143.465 72.6099C141.877 72.6099 140.59 73.8971 140.59 75.4849C140.59 77.0727 141.877 78.3599 143.465 78.3599C145.053 78.3599 146.34 77.0727 146.34 75.4849C146.34 73.8971 145.053 72.6099 143.465 72.6099ZM140.735 62.2757L141.199 70.7757C141.221 71.1735 141.549 71.4849 141.948 71.4849H144.982C145.38 71.4849 145.709 71.1735 145.731 70.7757L146.194 62.2757C146.218 61.8461 145.876 61.4849 145.446 61.4849H141.484C141.054 61.4849 140.712 61.8461 140.735 62.2757Z" fill="#FF6F29"/>
</g>
<defs>
<clipPath id="clip0_2353_9361">
<rect width="32" height="32" fill="white" transform="translate(127.465 53.4849)"/>
</clipPath>
</defs>
</svg>
