<svg width="230" height="83" viewBox="0 0 230 83" fill="none" xmlns="http://www.w3.org/2000/svg">
<line x1="202.758" y1="42.8315" x2="23.8532" y2="42.8316" stroke="#C8C8C8" stroke-width="1.95948"/>
<circle cx="115.254" cy="40.2741" r="39.2738" fill="#E6E6E6" stroke="#C8C8C8" stroke-width="1.95948"/>
<mask id="path-3-inside-1_2353_9341" fill="white">
<path d="M114.959 0.107422C124.89 0.107422 134.47 3.77854 141.858 10.415C149.246 17.0514 153.92 26.1847 154.982 36.0588C156.043 45.933 153.417 55.8509 147.608 63.9059C141.799 71.9609 133.218 77.5843 123.514 79.6949L123.087 77.7355C132.308 75.73 140.462 70.3867 145.982 62.733C151.501 55.0793 153.996 45.6554 152.988 36.2731C151.979 26.8909 147.538 18.2126 140.518 11.9068C133.498 5.60092 124.395 2.11268 114.959 2.11268V0.107422Z"/>
</mask>
<path d="M114.959 0.107422C124.89 0.107422 134.47 3.77854 141.858 10.415C149.246 17.0514 153.92 26.1847 154.982 36.0588C156.043 45.933 153.417 55.8509 147.608 63.9059C141.799 71.9609 133.218 77.5843 123.514 79.6949L123.087 77.7355C132.308 75.73 140.462 70.3867 145.982 62.733C151.501 55.0793 153.996 45.6554 152.988 36.2731C151.979 26.8909 147.538 18.2126 140.518 11.9068C133.498 5.60092 124.395 2.11268 114.959 2.11268V0.107422Z" stroke="#FF6F29" stroke-width="2.44935" mask="url(#path-3-inside-1_2353_9341)"/>
<circle cx="207.687" cy="40.8162" r="20.3477" fill="#E6E6E6" stroke="#FF6F29" stroke-width="1.95948"/>
<circle cx="21.3275" cy="40.8162" r="20.3477" fill="#E6E6E6" stroke="#C8C8C8" stroke-width="1.95948"/>
<circle cx="121.855" cy="79.2878" r="3.06168" fill="#FF6F29"/>
<g clip-path="url(#clip0_2353_9341)">
<path d="M112.75 35.5205C112.527 35.5205 112.31 35.5865 112.125 35.7101C111.94 35.8337 111.796 36.0094 111.711 36.215C111.625 36.4206 111.603 36.6468 111.647 36.865C111.69 37.0832 111.797 37.2837 111.955 37.441C112.112 37.5983 112.312 37.7055 112.531 37.7489C112.749 37.7923 112.975 37.77 113.181 37.6849C113.386 37.5997 113.562 37.4555 113.685 37.2705C113.809 37.0855 113.875 36.868 113.875 36.6455C113.875 36.3471 113.756 36.061 113.545 35.85C113.335 35.639 113.048 35.5205 112.75 35.5205ZM129.801 27.9043L116.301 22.2793C115.886 22.1222 115.447 22.0348 115.004 22.0205C114.56 22.0345 114.121 22.1217 113.706 22.2786L100.206 27.9036C99.5892 28.1588 99.0625 28.5913 98.6921 29.1462C98.3217 29.7011 98.1243 30.3534 98.125 31.0205C98.125 44.9775 106.176 54.6258 113.699 57.7618C114.11 57.9327 114.551 58.0207 114.997 58.0207C115.442 58.0207 115.883 57.9327 116.294 57.7618C122.319 55.2509 131.875 46.5807 131.875 31.0205C131.875 30.3544 131.679 29.703 131.31 29.1484C130.94 28.5939 130.415 28.161 129.801 27.9043ZM124 40.0205H123.148C121.143 40.0205 120.139 42.4442 121.557 43.8617L122.16 44.4643C122.371 44.6753 122.489 44.9614 122.489 45.2598C122.489 45.5582 122.371 45.8444 122.16 46.0554C121.949 46.2664 121.663 46.385 121.364 46.385C121.066 46.385 120.78 46.2664 120.569 46.0554L119.966 45.4521C118.549 44.0346 116.125 45.0387 116.125 47.0433V47.8955C116.125 48.1939 116.006 48.48 115.795 48.691C115.585 48.902 115.298 49.0205 115 49.0205C114.702 49.0205 114.415 48.902 114.205 48.691C113.994 48.48 113.875 48.1939 113.875 47.8955V47.0433C113.875 45.0387 111.451 44.0346 110.034 45.4521L109.431 46.0554C109.327 46.1599 109.203 46.2428 109.066 46.2993C108.93 46.3559 108.783 46.385 108.636 46.385C108.488 46.385 108.342 46.3559 108.205 46.2993C108.069 46.2428 107.945 46.1599 107.84 46.0554C107.736 45.951 107.653 45.8269 107.596 45.6904C107.54 45.5539 107.511 45.4076 107.511 45.2598C107.511 45.1121 107.54 44.9658 107.596 44.8293C107.653 44.6928 107.736 44.5687 107.84 44.4643L108.443 43.8617C109.861 42.4442 108.857 40.0205 106.852 40.0205H106C105.702 40.0205 105.415 39.902 105.205 39.691C104.994 39.48 104.875 39.1939 104.875 38.8955C104.875 38.5971 104.994 38.311 105.205 38.1C105.415 37.889 105.702 37.7705 106 37.7705H106.852C108.857 37.7705 109.861 35.3468 108.443 33.9293L107.84 33.3268C107.629 33.1158 107.511 32.8296 107.511 32.5312C107.511 32.2328 107.629 31.9466 107.84 31.7356C108.051 31.5246 108.337 31.406 108.636 31.406C108.934 31.406 109.22 31.5246 109.431 31.7356L110.034 32.3389C111.451 33.7564 113.875 32.7523 113.875 30.7477V29.8955C113.875 29.5971 113.994 29.311 114.205 29.1C114.415 28.889 114.702 28.7705 115 28.7705C115.298 28.7705 115.585 28.889 115.795 29.1C116.006 29.311 116.125 29.5971 116.125 29.8955V30.7477C116.125 32.7523 118.549 33.7564 119.966 32.3389L120.569 31.7356C120.78 31.5246 121.066 31.406 121.364 31.406C121.663 31.406 121.949 31.5246 122.16 31.7356C122.371 31.9466 122.489 32.2328 122.489 32.5312C122.489 32.8296 122.371 33.1158 122.16 33.3268L121.557 33.9293C120.139 35.3468 121.143 37.7705 123.148 37.7705H124C124.298 37.7705 124.585 37.889 124.795 38.1C125.006 38.311 125.125 38.5971 125.125 38.8955C125.125 39.1939 125.006 39.48 124.795 39.691C124.585 39.902 124.298 40.0205 124 40.0205ZM117.25 40.0205C117.027 40.0205 116.81 40.0865 116.625 40.2101C116.44 40.3337 116.296 40.5094 116.211 40.715C116.125 40.9206 116.103 41.1468 116.147 41.365C116.19 41.5832 116.297 41.7837 116.455 41.941C116.612 42.0983 116.812 42.2055 117.031 42.2489C117.249 42.2923 117.475 42.27 117.681 42.1849C117.886 42.0997 118.062 41.9555 118.185 41.7705C118.309 41.5855 118.375 41.368 118.375 41.1455C118.375 40.8471 118.256 40.561 118.045 40.35C117.835 40.139 117.548 40.0205 117.25 40.0205Z" fill="#FF6F29"/>
</g>
<defs>
<clipPath id="clip0_2353_9341">
<rect width="36" height="36" fill="white" transform="translate(97 22.0205)"/>
</clipPath>
</defs>
</svg>
