<svg width="175" height="139" viewBox="0 0 175 139" fill="none" xmlns="http://www.w3.org/2000/svg">
<path d="M16.4277 108.536V68.6417H154.298V26.4006" stroke="#C8C8C8" stroke-width="1.90292"/>
<path d="M84.4824 82.1357V123.79H152.537" stroke="#C8C8C8" stroke-width="1.90292"/>
<circle cx="17.0138" cy="119.096" r="16.0623" fill="#E6E6E6" stroke="#C8C8C8" stroke-width="1.90292"/>
<circle cx="157.818" cy="121.443" r="16.0623" fill="#E6E6E6" stroke="#C8C8C8" stroke-width="1.90292"/>
<circle cx="154.297" cy="17.0138" r="16.0623" fill="#E6E6E6" stroke="#C8C8C8" stroke-width="1.90292"/>
<circle cx="85.5439" cy="68.9809" r="27.5924" fill="#E6E6E6" stroke="#FF6F29" stroke-width="1.90292"/>
<g clip-path="url(#clip0_2353_9350)">
<path d="M99.9993 70.8197C99.9722 71.7729 99.1374 72.5205 98.1498 72.5205H95.0156V73.3955C95.0156 74.5912 94.7391 75.7243 94.2453 76.7394L97.6566 80.0331C98.3644 80.7165 98.3644 81.8245 97.6566 82.508C96.9487 83.1914 95.8011 83.1914 95.0933 82.508L91.993 79.5146C90.5912 80.6123 88.805 81.2705 86.8593 81.2705V67.9268C86.8593 67.5643 86.555 67.2705 86.1797 67.2705H84.8203C84.4449 67.2705 84.1406 67.5643 84.1406 67.9268V81.2705C82.1949 81.2705 80.4088 80.6123 79.0069 79.5146L75.9066 82.508C75.1987 83.1914 74.0511 83.1914 73.3433 82.508C72.6355 81.8245 72.6355 80.7165 73.3433 80.0331L76.7547 76.7394C76.2609 75.7243 75.9843 74.5912 75.9843 73.3955V72.5205H72.8502C71.8626 72.5205 71.0278 71.7729 71.0007 70.8197C70.9726 69.8308 71.7945 69.0205 72.8125 69.0205H75.9843V65.8079L73.3433 63.2579C72.6355 62.5745 72.6355 61.4665 73.3433 60.783C74.0512 60.0996 75.1987 60.0996 75.9066 60.783L79.0007 63.7705H91.9991L95.0932 60.7831C95.8011 60.0997 96.9487 60.0997 97.6566 60.7831C98.3644 61.4665 98.3644 62.5745 97.6566 63.258L95.0156 65.8079V69.0205H98.1875C99.2054 69.0205 100.027 69.8308 99.9993 70.8197ZM85.5566 55.0205C82.053 55.0205 79.2129 57.7628 79.2129 61.1455H91.9004C91.9004 57.7628 89.0602 55.0205 85.5566 55.0205Z" fill="#FF6F29"/>
</g>
<defs>
<clipPath id="clip0_2353_9350">
<rect width="29" height="28" fill="white" transform="translate(71 55.0205)"/>
</clipPath>
</defs>
</svg>
