<svg width="177" height="177" viewBox="0 0 177 177" fill="none" xmlns="http://www.w3.org/2000/svg">
<g clip-path="url(#clip0_2_8)">
<path d="M134.978 88.0559C134.978 113.412 114.18 133.987 88.5006 133.987C62.821 133.987 42.0234 113.412 42.0234 88.0559C42.0234 62.6996 62.821 42.1245 88.5006 42.1245C114.18 42.1245 134.978 62.6996 134.978 88.0559Z" stroke="#C8C8C8" stroke-width="2"/>
<path d="M154.999 88.0557C154.999 124.507 125.233 154.07 88.4996 154.07C51.7661 154.07 22 124.507 22 88.0557C22 51.604 51.7661 22.0417 88.4996 22.0417C125.233 22.0417 154.999 51.604 154.999 88.0557Z" stroke="#C8C8C8" stroke-opacity="0.4" stroke-width="2"/>
<path d="M176 88.0556C176 136.128 136.83 175.106 88.5 175.106C40.1703 175.106 1 136.128 1 88.0556C1 39.9836 40.1703 1.00488 88.5 1.00488C136.83 1.00488 176 39.9836 176 88.0556Z" stroke="#C8C8C8" stroke-opacity="0.3" stroke-width="2"/>
<path d="M88.5439 115.609C103.783 115.609 116.136 103.255 116.136 88.0163C116.136 72.7774 103.783 60.4239 88.5439 60.4239C73.305 60.4239 60.9515 72.7774 60.9515 88.0163C60.9515 103.255 73.305 115.609 88.5439 115.609Z" fill="#E6E6E6" stroke="#FF6F29" stroke-width="1.90292"/>
<g clip-path="url(#clip1_2_8)">
<path d="M86.543 88.0161C86.543 86.9099 87.4367 86.0161 88.543 86.0161C89.6492 86.0161 90.543 86.9099 90.543 88.0161C90.543 89.1224 89.6492 90.0161 88.543 90.0161C87.4367 90.0161 86.543 89.1224 86.543 88.0161ZM88.543 72.0161C89.6492 72.0161 90.543 72.9117 90.543 74.0161V74.663C96.3992 75.533 101.024 80.1599 101.893 86.0161H102.543C103.649 86.0161 104.543 86.9099 104.543 88.0161C104.543 89.1224 103.649 90.0161 102.543 90.0161H101.893C101.024 95.8724 96.3992 100.497 90.543 101.366V102.016C90.543 103.122 89.6492 104.016 88.543 104.016C87.4367 104.016 86.543 103.122 86.543 102.016V101.366C80.6867 100.497 76.0598 95.8724 75.1898 90.0161H74.543C73.4386 90.0161 72.543 89.1224 72.543 88.0161C72.543 86.9099 73.4386 86.0161 74.543 86.0161H75.1898C76.0598 80.1599 80.6867 75.533 86.543 74.663V74.0161C86.543 72.9117 87.4367 72.0161 88.543 72.0161ZM86.543 97.3036V96.0161C86.543 94.9099 87.4367 94.0161 88.543 94.0161C89.6492 94.0161 90.543 94.9099 90.543 96.0161V97.3036C94.1867 96.5224 97.0492 93.6599 97.8305 90.0161H96.543C95.4367 90.0161 94.543 89.1224 94.543 88.0161C94.543 86.9099 95.4367 86.0161 96.543 86.0161H97.8305C97.0492 82.3724 94.1867 79.5099 90.543 78.7286V80.0161C90.543 81.1224 89.6492 82.0161 88.543 82.0161C87.4367 82.0161 86.543 81.1224 86.543 80.0161V78.7286C82.8992 79.5099 80.0367 82.3724 79.2555 86.0161H80.543C81.6492 86.0161 82.543 86.9099 82.543 88.0161C82.543 89.1224 81.6492 90.0161 80.543 90.0161H79.2555C80.0367 93.6599 82.8992 96.5224 86.543 97.3036Z" fill="#FF6F29"/>
</g>
</g>
<defs>
<clipPath id="clip0_2_8">
<rect width="177" height="177" fill="white"/>
</clipPath>
<clipPath id="clip1_2_8">
<rect width="33" height="33" fill="white" transform="translate(72 72)"/>
</clipPath>
</defs>
</svg>
