<svg width="177" height="177" viewBox="0 0 177 177" fill="none" xmlns="http://www.w3.org/2000/svg">
<g clip-path="url(#clip0_2_8)">
<path d="M134.978 88.0559C134.978 113.412 114.18 133.987 88.5006 133.987C62.821 133.987 42.0234 113.412 42.0234 88.0559C42.0234 62.6996 62.821 42.1245 88.5006 42.1245C114.18 42.1245 134.978 62.6996 134.978 88.0559Z" stroke="#C8C8C8" stroke-width="2"/>
<path d="M154.999 88.0557C154.999 124.507 125.233 154.07 88.4996 154.07C51.7661 154.07 22 124.507 22 88.0557C22 51.604 51.7661 22.0417 88.4996 22.0417C125.233 22.0417 154.999 51.604 154.999 88.0557Z" stroke="#C8C8C8" stroke-opacity="0.4" stroke-width="2"/>
<path d="M176 88.0556C176 136.128 136.83 175.106 88.5 175.106C40.1703 175.106 1 136.128 1 88.0556C1 39.9836 40.1703 1.00488 88.5 1.00488C136.83 1.00488 176 39.9836 176 88.0556Z" stroke="#C8C8C8" stroke-opacity="0.3" stroke-width="2"/>
<path d="M88.5439 115.609C103.783 115.609 116.136 103.255 116.136 88.0163C116.136 72.7774 103.783 60.4239 88.5439 60.4239C73.305 60.4239 60.9515 72.7774 60.9515 88.0163C60.9515 103.255 73.305 115.609 88.5439 115.609Z" fill="#E6E6E6" stroke="#FF6F29" stroke-width="1.90292"/>
<path d="M88.0471 82.4146C88.2124 82.397 88.3777 82.3911 88.543 82.3911C91.6714 82.3911 94.2096 84.8579 94.2096 88.0161C94.2096 91.1216 91.6714 93.6411 88.543 93.6411C85.3614 93.6411 82.8763 91.1216 82.8763 88.0161C82.8763 87.8521 82.8822 87.688 82.8999 87.5239C83.4489 87.7876 84.0864 88.0161 84.7652 88.0161C86.8489 88.0161 88.543 86.3345 88.543 84.2661C88.543 83.5923 88.3128 82.9595 88.0471 82.4146ZM99.9117 79.6138C102.674 82.1567 104.522 85.1509 105.395 87.2954C105.59 87.7583 105.59 88.2739 105.395 88.7368C104.522 90.8286 102.674 93.8228 99.9117 96.4185C97.1315 98.9849 93.3124 101.141 88.543 101.141C83.7735 101.141 79.9544 98.9849 77.1754 96.4185C74.4129 93.8228 72.5665 90.8286 71.6882 88.7368C71.5923 88.5085 71.543 88.2635 71.543 88.0161C71.543 87.7687 71.5923 87.5238 71.6882 87.2954C72.5665 85.1509 74.4129 82.1567 77.1754 79.6138C79.9544 77.0497 83.7735 74.8911 88.543 74.8911C93.3124 74.8911 97.1315 77.0497 99.9117 79.6138ZM88.543 79.5786C83.8503 79.5786 80.043 83.3579 80.043 88.0161C80.043 92.6743 83.8503 96.4536 88.543 96.4536C93.2357 96.4536 97.043 92.6743 97.043 88.0161C97.043 83.3579 93.2357 79.5786 88.543 79.5786Z" fill="#FF6F29"/>
</g>
<defs>
<clipPath id="clip0_2_8">
<rect width="177" height="177" fill="white"/>
</clipPath>
</defs>
</svg>
