<svg width="177" height="177" viewBox="0 0 177 177" fill="none" xmlns="http://www.w3.org/2000/svg">
<g clip-path="url(#clip0_2_8)">
<path d="M134.978 88.0559C134.978 113.412 114.18 133.987 88.5006 133.987C62.821 133.987 42.0234 113.412 42.0234 88.0559C42.0234 62.6996 62.821 42.1245 88.5006 42.1245C114.18 42.1245 134.978 62.6996 134.978 88.0559Z" stroke="#C8C8C8" stroke-width="2"/>
<path d="M154.999 88.0557C154.999 124.507 125.233 154.07 88.4996 154.07C51.7661 154.07 22 124.507 22 88.0557C22 51.604 51.7661 22.0417 88.4996 22.0417C125.233 22.0417 154.999 51.604 154.999 88.0557Z" stroke="#C8C8C8" stroke-opacity="0.4" stroke-width="2"/>
<path d="M176 88.0556C176 136.128 136.83 175.106 88.5 175.106C40.1703 175.106 1 136.128 1 88.0556C1 39.9836 40.1703 1.00488 88.5 1.00488C136.83 1.00488 176 39.9836 176 88.0556Z" stroke="#C8C8C8" stroke-opacity="0.3" stroke-width="2"/>
<path d="M88.5439 115.609C103.783 115.609 116.136 103.255 116.136 88.0163C116.136 72.7774 103.783 60.4239 88.5439 60.4239C73.305 60.4239 60.9515 72.7774 60.9515 88.0163C60.9515 103.255 73.305 115.609 88.5439 115.609Z" fill="#E6E6E6" stroke="#FF6F29" stroke-width="1.90292"/>
<g clip-path="url(#clip1_2_8)">
<path d="M69 96.9937L73 96.9962C74.1094 96.9962 75 96.103 75 94.9943V81.0187H69V96.9937ZM72 93.0062C72.5469 93.0062 73 93.451 73 94.0055C73 94.5519 72.5469 95.0049 72 95.0049C71.4531 95.0049 71 94.5499 71 94.0062C71 93.4499 71.4531 93.0062 72 93.0062ZM90.8 76.9999C90.3037 76.9999 89.8212 77.1855 89.455 77.5204L83.3062 83.1437C83.3 83.1562 83.3 83.1687 83.2875 83.1687C82.25 84.1437 82.2688 85.6999 83.1562 86.6687C83.9531 87.4874 85.6175 87.7699 86.6644 86.8405C86.675 86.8312 86.6812 86.8312 86.6875 86.8249L91.68 82.2562C92.0863 81.8892 92.7269 81.9127 93.0938 82.3187C93.4688 82.7247 93.4375 83.3574 93.0312 83.7324L91.3988 85.2243L100.5 92.6062C100.68 92.7622 100.844 92.9184 100.992 93.09V80.9437C98.4309 78.3837 94.9622 76.9512 91.3422 76.9512L90.8 76.9999ZM89.9125 86.5874L88.0375 88.3055C86.1781 89.9999 83.3344 89.8362 81.675 88.0324C80 86.1999 80.1313 83.3562 81.9563 81.6812L87.0688 76.9999H86.6562C83.0437 76.9999 79.5688 78.4424 77.0125 80.9937L77 94.9874L78.1406 94.9897L83.7969 100.104C85.5156 101.502 88.0312 101.236 89.4219 99.5256L90.5544 100.478C91.5469 101.234 93.0156 101.134 93.8281 100.142L95.7894 97.7299L96.1252 98.011C96.9846 98.6985 98.2428 98.5737 98.9377 97.7143L99.5339 96.978C100.229 96.1187 100.099 94.8668 99.2405 94.1699L89.9125 86.5874ZM103 81.0249V94.9999C103 96.1012 103.891 97.003 104.944 97.003L109 96.9999V81.0062L103 81.0249ZM106 94.9999C105.453 94.9999 105 94.547 105 94.0005C105 93.4459 105.453 93.0012 106 93.0012C106.547 93.0012 107 93.4499 107 94.0062C107 94.5499 106.55 94.9999 106 94.9999Z" fill="#FF6F29"/>
</g>
</g>
<defs>
<clipPath id="clip0_2_8">
<rect width="177" height="177" fill="white"/>
</clipPath>
<clipPath id="clip1_2_8">
<rect width="40" height="26" fill="white" transform="translate(69 76)"/>
</clipPath>
</defs>
</svg>
