<svg width="115" height="16" viewBox="0 0 115 16" fill="none" xmlns="http://www.w3.org/2000/svg">
<g clip-path="url(#clip0_2353_9219)">
<path d="M18.0614 13.7301C18.7537 14.4394 19.619 14.9911 20.6575 15.401C21.6959 15.7951 22.8917 16 24.2448 16C25.0473 16 25.8497 15.9212 26.6679 15.7793C27.4861 15.6217 28.1784 15.401 28.7605 15.1172L28.2098 12.3271C27.7535 12.5163 27.2186 12.6739 26.6207 12.8C26.0228 12.9261 25.4406 12.9892 24.8427 12.9892C23.2693 12.9892 22.0264 12.5793 21.1138 11.7596C20.2012 10.9399 19.7449 9.67882 19.7449 8.00788C19.7449 6.33695 20.2012 5.07586 21.1138 4.25616C22.0264 3.43645 23.2693 3.0266 24.8427 3.0266C25.4249 3.0266 26.0228 3.08966 26.6207 3.23153C27.2186 3.35764 27.7378 3.51527 28.2098 3.70443L28.7605 0.914286C28.1784 0.630542 27.4703 0.394089 26.6679 0.252217C25.8655 0.0788177 25.063 0 24.2606 0C22.9075 0 21.6959 0.204926 20.6732 0.599015C19.6348 1.00887 18.7694 1.56059 18.0771 2.26995C17.3848 2.97931 16.8499 3.83054 16.5037 4.79212C16.1418 5.76946 15.9688 6.84138 15.9688 7.99212C15.9688 9.15862 16.1418 10.2148 16.5037 11.1921C16.8499 12.1695 17.3691 13.0207 18.0614 13.7301Z" fill="#FF6F29"/>
<path d="M32.4282 13.6355C33.1048 14.3606 33.923 14.9438 34.9142 15.3695C35.8897 15.7951 37.0068 16 38.2656 16C39.5243 16 40.6257 15.7951 41.6012 15.3695C42.5767 14.9438 43.3949 14.3764 44.0714 13.6355C44.748 12.9103 45.2515 12.0591 45.6133 11.0975C45.9752 10.136 46.1483 9.09557 46.1483 8.00788C46.1483 6.90443 45.9752 5.8798 45.6133 4.91823C45.2515 3.95665 44.748 3.10542 44.0714 2.3803C43.3949 1.65517 42.5767 1.07192 41.6012 0.646305C40.6257 0.204926 39.5243 0 38.2656 0C37.0068 0 35.8897 0.204926 34.9142 0.630542C33.9387 1.05616 33.1048 1.63941 32.4282 2.36453C31.7517 3.08966 31.2482 3.94089 30.902 4.90246C30.5559 5.86404 30.3828 6.90443 30.3828 7.99212C30.3828 9.09557 30.5559 10.1202 30.902 11.0818C31.2482 12.0591 31.7674 12.9103 32.4282 13.6355ZM34.4422 5.99015C34.6153 5.37537 34.867 4.85517 35.2132 4.41379C35.5593 3.97241 35.9841 3.62562 36.4876 3.3734C36.9911 3.12118 37.5733 2.99507 38.2656 2.99507C38.9264 2.99507 39.5243 3.12118 40.0278 3.3734C40.547 3.62562 40.9718 3.97241 41.318 4.41379C41.6641 4.85517 41.9316 5.37537 42.0889 5.99015C42.262 6.60493 42.3407 7.267 42.3407 7.99212C42.3407 8.71724 42.262 9.37931 42.0889 9.99409C41.9159 10.6089 41.6641 11.1291 41.318 11.5704C40.9718 12.0118 40.547 12.3586 40.0278 12.6108C39.5243 12.8631 38.9264 12.9892 38.2656 12.9892C37.589 12.9892 36.9911 12.8631 36.4876 12.6108C35.9841 12.3586 35.5593 12.0118 35.2132 11.5704C34.867 11.1291 34.5995 10.6089 34.4422 9.99409C34.2691 9.37931 34.1904 8.71724 34.1904 7.99212C34.1904 7.28276 34.2691 6.60493 34.4422 5.99015Z" fill="#FF6F29"/>
<path d="M6.34178 6.36865H3.52539V9.17456H6.34178V6.36865Z" fill="black"/>
<path d="M14.082 13.5886V10.6093L7.04884 13.0211L2.81639 11.5709V2.82209H11.2656V6.35312H7.06458V9.1748H14.082V0.0161743H0V13.5886L7.04884 16.0004L14.082 13.5886Z" fill="#FF6F29"/>
<path d="M59.2546 0.28418H58.3105V3.29502H59.2546V0.28418Z" fill="black"/>
<path d="M47.1562 0.28418V3.29502H51.2943V15.7325H55.1019V3.29502H58.3117V0.28418H47.1562Z" fill="black"/>
<path d="M64.8876 10.3729H65.5799L69.8281 15.7325H74.5168L69.4347 9.64773C70.4732 9.25364 71.2756 8.65462 71.8578 7.88221C72.4399 7.1098 72.7231 6.21127 72.7231 5.17088C72.7231 4.33541 72.5501 3.61029 72.2039 2.99551C71.8735 2.3965 71.4015 1.89206 70.8036 1.48221C70.2057 1.07236 69.4819 0.77285 68.6795 0.583687C67.8613 0.378761 66.9645 0.28418 66.0047 0.28418H61.0957V15.7325H64.9033V10.3729H64.8876ZM64.8876 3.20044H65.9732C66.9488 3.20044 67.704 3.35807 68.2547 3.70487C68.7896 4.0359 69.0729 4.5561 69.0729 5.2497C69.0729 5.97482 68.7896 6.54231 68.2075 6.9364C67.6411 7.34625 66.8386 7.53541 65.8159 7.53541H64.8876V3.20044Z" fill="black"/>
<path d="M82.2719 16.0004C84.3331 16.0004 85.9379 15.4802 87.0865 14.4398C88.2351 13.3995 88.8173 11.9807 88.8173 10.1522V0.28418H85.0096V10.2783C85.0096 11.161 84.7736 11.8231 84.3173 12.296C83.8453 12.7531 83.1688 12.9896 82.2719 12.9896C81.3751 12.9896 80.6985 12.7531 80.2265 12.296C79.7702 11.8231 79.5342 11.161 79.5342 10.2783V0.28418H75.7266V10.1679C75.7266 11.9965 76.3087 13.4152 77.4573 14.4556C78.6216 15.4802 80.2265 16.0004 82.2719 16.0004Z" fill="black"/>
<path d="M95.8829 12.9892C95.0962 12.9892 94.3567 12.8946 93.6801 12.7054C93.0035 12.5163 92.3899 12.2798 91.855 12.0276L91.084 14.9281C91.8077 15.2906 92.5945 15.5586 93.4441 15.7478C94.2937 15.9369 95.1434 16.0315 95.993 16.0315C96.9213 16.0315 97.7395 15.9054 98.479 15.6532C99.2027 15.401 99.8321 15.0542 100.336 14.6128C100.839 14.1714 101.232 13.6512 101.5 13.0522C101.767 12.4532 101.909 11.8227 101.909 11.1448C101.909 10.4828 101.783 9.89951 101.547 9.41084C101.311 8.92217 100.981 8.48079 100.556 8.0867C100.131 7.70837 99.6433 7.36158 99.0769 7.06207C98.5104 6.76256 97.8968 6.49458 97.2517 6.2266C96.8112 6.03744 96.4336 5.8798 96.1346 5.73793C95.8357 5.59606 95.6154 5.45419 95.458 5.32808C95.3007 5.18621 95.1906 5.04433 95.1276 4.8867C95.0647 4.72906 95.0332 4.5399 95.0332 4.33498C95.0332 3.87783 95.2063 3.5468 95.5524 3.34187C95.8986 3.15271 96.3549 3.05813 96.937 3.05813C97.6136 3.05813 98.2744 3.13695 98.9195 3.29458C99.5646 3.45222 100.147 3.67291 100.697 3.92512L101.343 1.07192C100.792 0.75665 100.1 0.504433 99.2971 0.315271C98.4947 0.0945813 97.6608 0 96.764 0C95.0332 0 93.6801 0.394089 92.6889 1.18227C91.6976 1.97044 91.2099 3.12118 91.2099 4.61872C91.2099 5.76946 91.556 6.69951 92.2483 7.44039C92.9406 8.18128 94.042 8.82759 95.5682 9.39507C96.528 9.75764 97.1888 10.0887 97.5507 10.4039C97.9126 10.7192 98.1014 11.066 98.1014 11.4601C98.1014 11.9961 97.8968 12.3901 97.472 12.6266C97.0787 12.8631 96.5437 12.9892 95.8829 12.9892Z" fill="black"/>
<path d="M107.039 15.7322H110.846V3.29477H115V0.283936H102.885V3.29477H107.039V15.7322Z" fill="black"/>
</g>
<defs>
<clipPath id="clip0_2353_9219">
<rect width="115" height="16" fill="white"/>
</clipPath>
</defs>
</svg>
