<svg width="24" height="24" viewBox="0 0 24 24" fill="none" xmlns="http://www.w3.org/2000/svg">
<path d="M1.44 10.5H1.68V19.5H1.44C1.25083 19.5002 1.06348 19.4616 0.888671 19.3863C0.71386 19.311 0.555027 19.2005 0.421265 19.0612C0.287504 18.9219 0.181443 18.7564 0.109156 18.5743C0.0368691 18.3922 -0.000224019 18.1971 1.01782e-06 18V12C-0.000224019 11.803 0.0368691 11.6078 0.109156 11.4257C0.181443 11.2436 0.287504 11.0782 0.421265 10.9388C0.555027 10.7995 0.71386 10.689 0.888671 10.6137C1.06348 10.5384 1.25083 10.4998 1.44 10.5ZM22.08 8.25V21C22.0793 21.7954 21.7756 22.558 21.2356 23.1205C20.6957 23.6829 19.9636 23.9992 19.2 24H4.8C4.03641 23.9992 3.3043 23.6829 2.76436 23.1205C2.22442 22.558 1.92075 21.7954 1.92 21V8.25C1.91985 7.7575 2.01286 7.26979 2.19372 6.81475C2.37458 6.3597 2.63975 5.94624 2.97407 5.59799C3.3084 5.24974 3.70532 4.97352 4.14216 4.78513C4.579 4.59673 5.0472 4.49984 5.52 4.5H10.56V1.5C10.56 1.10218 10.7117 0.720644 10.9818 0.43934C11.2518 0.158035 11.6181 0 12 0C12.3819 0 12.7482 0.158035 13.0182 0.43934C13.2883 0.720644 13.44 1.10218 13.44 1.5V4.5H18.48C18.9528 4.49984 19.421 4.59673 19.8578 4.78513C20.2947 4.97352 20.6916 5.24974 21.0259 5.59799C21.3603 5.94624 21.6254 6.3597 21.8063 6.81475C21.9871 7.26979 22.0802 7.7575 22.08 8.25ZM9.48 12C9.48 11.6292 9.37443 11.2666 9.17665 10.9583C8.97886 10.65 8.69774 10.4096 8.36883 10.2677C8.03992 10.1258 7.678 10.0887 7.32884 10.161C6.97967 10.2334 6.65894 10.412 6.40721 10.6742C6.15547 10.9364 5.98404 11.2705 5.91459 11.6342C5.84513 11.9979 5.88078 12.3749 6.01702 12.7175C6.15326 13.0601 6.38397 13.353 6.67997 13.559C6.97598 13.765 7.32399 13.875 7.68 13.875C7.91639 13.875 8.15046 13.8265 8.36885 13.7323C8.58725 13.6381 8.78568 13.5 8.95283 13.3259C9.11998 13.1518 9.25257 12.945 9.34302 12.7176C9.43347 12.4901 9.48002 12.2462 9.48 12ZM9.12 18H6.24V19.5H9.12V18ZM13.44 18H10.56V19.5H13.44V18ZM18.12 12C18.12 11.6292 18.0144 11.2666 17.8166 10.9583C17.6189 10.65 17.3377 10.4096 17.0088 10.2677C16.6799 10.1258 16.318 10.0887 15.9688 10.161C15.6197 10.2334 15.2989 10.412 15.0472 10.6742C14.7955 10.9364 14.624 11.2705 14.5546 11.6342C14.4851 11.9979 14.5208 12.3749 14.657 12.7175C14.7933 13.0601 15.024 13.353 15.32 13.559C15.616 13.765 15.964 13.875 16.32 13.875C16.5564 13.875 16.7905 13.8265 17.0089 13.7323C17.2272 13.6381 17.4257 13.5 17.5928 13.3259C17.76 13.1518 17.8926 12.945 17.983 12.7176C18.0735 12.4901 18.12 12.2462 18.12 12ZM17.76 18H14.88V19.5H17.76V18ZM24 12V18C24.0002 18.1971 23.9631 18.3922 23.8908 18.5743C23.8186 18.7564 23.7125 18.9219 23.5787 19.0612C23.445 19.2005 23.2861 19.311 23.1113 19.3863C22.9365 19.4616 22.7492 19.5002 22.56 19.5H22.32V10.5H22.56C22.7492 10.4998 22.9365 10.5384 23.1113 10.6137C23.2861 10.689 23.445 10.7995 23.5787 10.9388C23.7125 11.0782 23.8186 11.2436 23.8908 11.4257C23.9631 11.6078 24.0002 11.803 24 12Z" fill="#B8B8B8"/>
</svg>
