<svg width="24" height="22" viewBox="0 0 24 22" fill="none" xmlns="http://www.w3.org/2000/svg">
<path d="M12 1.33325C5.3725 1.33325 0 6.70575 0 13.3333C0 15.5333 0.59375 17.5941 1.6275 19.3666C1.86125 19.7674 2.30667 19.9999 2.77083 19.9999H21.2292C21.6933 19.9999 22.1388 19.7674 22.3725 19.3666C23.4062 17.5941 24 15.5333 24 13.3333C24 6.70575 18.6275 1.33325 12 1.33325ZM12 3.99992C12.6129 3.99992 13.1075 4.422 13.2633 4.98534C13.2171 5.0795 13.1533 5.16159 13.1196 5.26325L12.7354 6.41617C12.5217 6.56159 12.2783 6.66659 12.0004 6.66659C11.2642 6.66659 10.6671 6.0695 10.6671 5.33325C10.6671 4.597 11.2638 3.99992 12 3.99992ZM4 15.9999C3.26375 15.9999 2.66667 15.4028 2.66667 14.6666C2.66667 13.9303 3.26375 13.3333 4 13.3333C4.73625 13.3333 5.33333 13.9303 5.33333 14.6666C5.33333 15.4028 4.73625 15.9999 4 15.9999ZM6 9.33325C5.26375 9.33325 4.66667 8.73617 4.66667 7.99992C4.66667 7.26367 5.26375 6.66659 6 6.66659C6.73625 6.66659 7.33333 7.26367 7.33333 7.99992C7.33333 8.73617 6.73625 9.33325 6 9.33325ZM16.2821 6.31617L13.7267 13.9828C14.2971 14.472 14.6667 15.1891 14.6667 15.9999C14.6667 16.4883 14.5258 16.9395 14.2967 17.3333H9.70333C9.47417 16.9395 9.33333 16.4883 9.33333 15.9999C9.33333 14.5858 10.4375 13.4403 11.8292 13.3503L14.385 5.68325C14.5588 5.15992 15.1238 4.87284 15.65 5.05117C16.1737 5.22575 16.4562 5.79242 16.2821 6.31617ZM16.8929 8.6995L17.5396 6.75992C17.6842 6.70617 17.8367 6.667 18 6.667C18.7362 6.667 19.3333 7.26409 19.3333 8.00034C19.3333 8.73659 18.7362 9.33367 18 9.33367C17.5258 9.33325 17.1296 9.072 16.8929 8.6995ZM20 15.9999C19.2638 15.9999 18.6667 15.4028 18.6667 14.6666C18.6667 13.9303 19.2638 13.3333 20 13.3333C20.7362 13.3333 21.3333 13.9303 21.3333 14.6666C21.3333 15.4028 20.7362 15.9999 20 15.9999Z" fill="black"/>
</svg>
