<svg width="24" height="25" viewBox="0 0 24 25" fill="none" xmlns="http://www.w3.org/2000/svg">
<g clip-path="url(#clip0_2724_4049)">
<path d="M12 0.387207C5.37242 0.387207 0 5.75963 0 12.3872C0 19.0148 5.37242 24.3872 12 24.3872C18.6276 24.3872 24 19.0148 24 12.3872C24 5.75963 18.6276 0.387207 12 0.387207ZM12 21.2904C7.07952 21.2904 3.09677 17.3087 3.09677 12.3872C3.09677 7.46672 7.07855 3.48398 12 3.48398C16.9205 3.48398 20.9032 7.46576 20.9032 12.3872C20.9032 17.3077 16.9215 21.2904 12 21.2904ZM12 6.19366C8.57952 6.19366 5.80645 8.96672 5.80645 12.3872C5.80645 15.8077 8.57952 18.5808 12 18.5808C15.4205 18.5808 18.1935 15.8077 18.1935 12.3872C18.1935 8.96672 15.4205 6.19366 12 6.19366ZM12 15.484C10.2924 15.484 8.90323 14.0948 8.90323 12.3872C8.90323 10.6796 10.2924 9.29043 12 9.29043C13.7076 9.29043 15.0968 10.6796 15.0968 12.3872C15.0968 14.0948 13.7076 15.484 12 15.484Z" fill="#B8B8B8"/>
</g>
<defs>
<clipPath id="clip0_2724_4049">
<rect width="24" height="24.7742" fill="white"/>
</clipPath>
</defs>
</svg>
