<svg width="24" height="24" viewBox="0 0 24 24" fill="none" xmlns="http://www.w3.org/2000/svg">
<g clip-path="url(#clip0_2724_4030)">
<path d="M14.318 21.684C14.6644 22.0261 14.608 22.626 14.1773 22.856C10.5345 24.8155 5.89331 24.2581 2.81746 21.1822C-0.25763 18.107 -0.815818 13.4702 1.1444 9.82292C1.37367 9.39659 1.97362 9.3402 2.31642 9.6823L7.79198 15.1579L9.07607 13.8738C9.04382 13.7515 9.00135 13.6394 9.00135 13.5075C9.00136 13.2108 9.08935 12.9208 9.2542 12.6741C9.41905 12.4274 9.65335 12.2351 9.92748 12.1216C10.2016 12.008 10.5032 11.9783 10.7942 12.0362C11.0852 12.0941 11.3526 12.237 11.5624 12.4468C11.7722 12.6566 11.915 12.9239 11.9729 13.2149C12.0308 13.5059 12.0011 13.8076 11.8875 14.0817C11.774 14.3558 11.5817 14.5901 11.335 14.7549C11.0883 14.9198 10.7982 15.0078 10.5015 15.0078C10.3704 15.0078 10.2576 14.966 10.136 14.933L8.85117 16.2179L14.318 21.684ZM23.9989 14.2063C24.0046 14.3086 23.9895 14.4109 23.9544 14.5071C23.9193 14.6033 23.8651 14.6913 23.7949 14.7659C23.7247 14.8404 23.6401 14.8999 23.5462 14.9407C23.4524 14.9816 23.3512 15.0029 23.2488 15.0034H21.7434C21.5531 15.0028 21.3702 14.9298 21.2318 14.7991C21.0935 14.6685 21.01 14.4901 20.9985 14.3001C20.6469 8.22894 15.7712 3.30636 9.70452 2.97819C9.51396 2.96804 9.33461 2.88492 9.20368 2.74608C9.07274 2.60724 9.00028 2.42333 9.00131 2.2325V0.751343C9.00172 0.648946 9.02298 0.547707 9.06378 0.45379C9.10459 0.359874 9.16408 0.275248 9.23864 0.205066C9.31321 0.134884 9.40128 0.0806158 9.49749 0.0455674C9.5937 0.010519 9.69604 -0.00457592 9.79827 0.00120201C17.4494 0.404139 23.6004 6.55512 23.9989 14.2063ZM19.4983 14.1924C19.5053 14.296 19.491 14.4 19.4562 14.4978C19.4214 14.5957 19.367 14.6854 19.2962 14.7614C19.2255 14.8374 19.1399 14.8981 19.0447 14.9397C18.9496 14.9813 18.8469 15.003 18.7431 15.0034H17.2334C17.0456 15.002 16.8651 14.9305 16.7273 14.803C16.5895 14.6755 16.5043 14.5011 16.4884 14.3141C16.1646 10.7042 13.2953 7.80266 9.69506 7.50669C9.50667 7.49318 9.3304 7.40883 9.20168 7.27062C9.07297 7.1324 9.00138 6.95057 9.00131 6.7617V5.25636C9.00128 5.15242 9.02268 5.04959 9.06416 4.95429C9.10565 4.85899 9.16634 4.77327 9.24243 4.70247C9.31853 4.63167 9.4084 4.57732 9.50644 4.5428C9.60448 4.50828 9.70858 4.49435 9.81224 4.50186C14.9743 4.90034 19.1042 9.03031 19.4983 14.1924Z" fill="#B8B8B8"/>
</g>
<defs>
<clipPath id="clip0_2724_4030">
<rect width="24" height="24" fill="white"/>
</clipPath>
</defs>
</svg>
