<svg width="151" height="33" viewBox="0 0 151 33" fill="none" xmlns="http://www.w3.org/2000/svg">
<path d="M149.481 6.92736C149.438 7.36966 149.37 7.80906 149.276 8.24328C149.172 8.67419 148.193 11.0967 148.121 11.4969C148.077 11.8865 148.057 12.2783 148.06 12.6703C147.763 12.8006 147.079 13.3106 146.716 13.3106C146.354 13.3106 145.489 12.4828 145.112 12.384C145.112 11.3612 145.375 11.2767 145.284 10.7476C145.136 10.1355 144.922 9.5411 144.646 8.97488C144.541 8.71272 144.515 8.42612 144.569 8.14919C144.494 8.25752 144.441 8.37952 144.414 8.50822C144.386 8.63692 144.385 8.76979 144.409 8.89919C144.503 9.46442 144.954 10.3153 145.018 10.6883C145.082 11.0612 145.063 11.4894 144.922 11.5842C143.904 11.4738 142.92 11.1539 142.032 10.6447C141.346 10.2517 140.639 9.89813 139.913 9.58579C140.345 8.67539 140.889 7.82226 141.532 7.046C142.065 6.40142 142.701 5.84863 143.413 5.40963C144.389 4.91812 145.48 4.70352 146.569 4.78918C147.235 4.86401 147.892 4.994 148.536 5.17781C148.536 5.17781 149.166 4.65486 149.649 4.81917C149.513 5.18259 149.355 5.55486 149.355 5.55486L149.98 5.91895C149.793 6.24369 149.627 6.5798 149.481 6.92532M121.373 16.2567C121.384 17.0314 121.66 17.7789 122.155 18.3745C122.161 18.3779 122.166 18.3861 122.172 18.3908C122.016 17.8861 121.889 17.3727 121.792 16.8533V15.8238C121.917 15.1012 122.134 14.3974 122.436 13.7292C122.431 13.7333 122.431 13.7381 122.427 13.7381C122.424 13.7381 122.403 13.7585 122.395 13.7667C122.13 14.0249 121.909 14.3243 121.74 14.6531L121.703 14.7281C121.519 15.1112 121.41 15.5263 121.383 15.9506C121.377 16.0338 121.37 16.1156 121.37 16.1988C121.37 16.2158 121.376 16.2349 121.376 16.2554M138.479 10.7858C138.533 10.7554 138.577 10.7114 138.608 10.6583C138.698 10.5209 138.779 10.3778 138.85 10.2301C138.85 9.95738 138.28 9.9867 138.159 9.8892C138.038 9.7917 137.983 9.65056 137.793 9.56738L137.785 9.59601C137.779 9.64579 137.779 9.71329 137.779 9.77806C137.812 9.95393 137.828 10.1324 137.828 10.3112C137.832 10.5412 137.805 10.7706 137.747 10.9931C137.853 11.032 137.956 11.0776 138.057 11.1294C138.176 10.9897 138.319 10.8722 138.479 10.7824M138.411 8.70487L136.19 6.21213L134.751 7.4135L134.806 7.58873C134.856 7.71224 134.913 7.83249 134.978 7.94873C135.051 8.07372 135.132 8.19396 135.22 8.30873C135.319 8.43806 135.427 8.5604 135.543 8.67488C135.56 8.69192 135.58 8.70624 135.594 8.7226C135.909 9.01872 136.28 9.24931 136.685 9.40101C136.922 9.48825 137.171 9.53638 137.424 9.54351L138.414 8.70419L138.411 8.70487ZM137.331 4.58054V3.92394C137.336 3.88589 137.332 3.84733 137.32 3.81086C137.308 3.7744 137.289 3.74089 137.263 3.71258C137.178 3.67068 137.1 3.61796 137.028 3.55576C137.003 3.53667 136.979 3.51212 136.96 3.49371C136.807 3.52653 136.648 3.50858 136.506 3.44258C136.425 3.41593 136.351 3.37479 136.285 3.32121C136.247 3.28763 136.215 3.24659 136.193 3.20054C136.17 3.15449 136.158 3.10439 136.155 3.05326C136.081 3.05326 136.01 3.0444 135.941 3.03621V3.46303C135.946 3.48008 135.948 3.50053 135.953 3.51553C135.994 3.65629 136.001 3.80447 135.975 3.9486C135.949 4.09272 135.89 4.22892 135.803 4.34667C135.709 4.47966 135.584 4.58852 135.439 4.66445C135.295 4.74037 135.135 4.78123 134.971 4.78372C134.957 4.90845 134.959 5.03445 134.977 5.15872C134.993 5.2719 135.113 5.58145 135.159 5.74918C135.264 6.04951 135.325 6.36386 135.338 6.68191L135.666 6.40577C135.597 6.14259 135.517 5.8685 135.443 5.59782C135.391 5.41168 135.339 5.22963 135.294 5.05236C135.476 5.01609 135.649 4.94241 135.802 4.83598C135.954 4.72954 136.083 4.59266 136.18 4.43395C136.366 4.49834 136.557 4.54848 136.751 4.58395H137.328L137.331 4.58054ZM138.159 3.73644C138.248 3.64781 138.227 3.43099 138.059 3.06417C137.998 2.98496 137.93 2.91148 137.855 2.84462C137.724 2.9128 137.67 2.9128 137.625 2.93667C137.59 2.99496 137.552 3.05078 137.509 3.10371C137.479 3.13849 137.402 3.12553 137.373 3.15008C137.329 3.26076 137.252 3.35573 137.154 3.4228C137.281 3.53997 137.428 3.63246 137.589 3.69553C137.698 3.73849 138.066 3.82099 138.158 3.73849M138.584 2.23848C138.971 2.01547 139.305 1.7112 139.563 1.34666C139.492 1.32203 139.424 1.29123 139.358 1.25461C139.092 1.09574 138.865 0.880157 138.692 0.623247C138.458 1.18462 138.089 1.67999 137.619 2.06598C137.641 2.11125 137.66 2.1585 137.673 2.20712C137.678 2.22179 137.682 2.23684 137.684 2.25212C137.709 2.37577 137.711 2.50281 137.69 2.62712C138.005 2.53787 138.307 2.40719 138.588 2.23848M139.694 1.13529C139.694 1.13529 139.701 1.13529 139.703 1.1312C139.709 1.12575 139.713 1.11894 139.716 1.11136C139.719 1.10377 139.72 1.09562 139.719 1.08757C139.668 0.878626 139.548 0.693003 139.378 0.56052C139.285 0.469187 139.183 0.387203 139.074 0.315745C138.955 0.242791 138.862 0.212791 138.808 0.231882C138.802 0.234597 138.796 0.238031 138.791 0.242109C138.786 0.24981 138.782 0.258351 138.78 0.267337C138.771 0.296118 138.773 0.32716 138.786 0.35461C138.859 0.53242 138.971 0.691224 139.115 0.81893C139.358 1.05348 139.614 1.19598 139.695 1.13461M137.371 2.10143C137.371 2.09598 136.81 2.14575 136.81 2.14575C136.81 2.14575 136.537 2.33871 136.501 2.50576C136.493 2.62131 136.493 2.73725 136.501 2.8528L137.378 2.86985C137.447 2.75363 137.483 2.62047 137.482 2.48502C137.481 2.34957 137.442 2.21708 137.371 2.10212M136.75 3.30144C137.209 3.33485 137.185 3.06894 137.185 3.06894L136.39 3.05667C136.39 3.05667 136.289 3.27417 136.75 3.30144ZM135.597 2.36189C135.526 2.28456 135.441 2.22079 135.348 2.17371C135.25 2.26371 135.117 2.38916 134.992 2.48462C134.986 2.48939 134.986 2.49348 134.98 2.49348C134.935 2.53376 134.886 2.56772 134.832 2.59439C134.743 2.50655 134.679 2.39669 134.646 2.27598C134.637 2.24821 134.632 2.2193 134.631 2.19007C134.626 2.1482 134.635 2.10609 134.656 2.06948C134.677 2.03288 134.708 2.00356 134.746 1.98553C134.84 1.95 134.931 1.90808 135.019 1.86007C135.031 1.79299 135.061 1.7306 135.107 1.68007C135.067 1.58344 135.015 1.49191 134.953 1.40734L134.714 1.2662C134.622 1.21836 134.533 1.16414 134.448 1.10393C134.448 1.25461 134.462 1.34666 134.461 1.45711V1.4953C134.461 1.55734 134.466 1.6228 134.47 1.68552C134.47 1.80348 134.475 1.92007 134.475 2.03734H134.271C134.271 1.99818 134.27 1.95899 134.265 1.92007C134.265 1.85189 134.265 1.79462 134.26 1.7278C134.254 1.66098 134.251 1.59143 134.249 1.52734C134.235 1.26348 134.213 1.01052 134.19 0.769839C134.162 0.760445 134.133 0.754045 134.104 0.750748C134.053 0.741884 134 0.736429 133.949 0.727566H133.922C133.881 0.727566 133.843 0.731657 133.804 0.731657C133.793 0.760975 133.883 1.28666 133.904 1.38007C133.915 1.43052 134 1.9828 134.003 2.01416V2.03734H133.809L133.803 2.04621C133.763 1.80348 133.718 1.56893 133.662 1.34325C133.612 1.13393 133.553 0.934158 133.493 0.742566C133.308 0.765909 133.126 0.813119 132.953 0.883021C132.948 0.88643 132.941 0.886431 132.937 0.891885C132.818 0.943319 132.706 1.00927 132.603 1.08825C132.585 1.10052 132.568 1.11416 132.553 1.12643C132.483 1.19964 132.417 1.27657 132.355 1.35689C132.261 1.48439 132.185 1.60371 132.13 1.6828C132.097 1.73053 132.097 1.7953 132.062 1.86757C132.049 1.90575 132.038 1.94468 132.029 1.98416C132.021 2.02633 132.016 2.06889 132.012 2.11166V2.11916C132.023 2.12233 132.034 2.12643 132.044 2.13144C132.112 2.14848 132.171 2.16484 132.233 2.17575C132.397 2.21026 132.563 2.22762 132.73 2.22757C132.745 2.22757 132.761 2.23098 132.775 2.23098C132.855 2.23136 132.934 2.22749 133.013 2.21939H133.019V2.23098C133.084 2.4807 133.213 2.709 133.394 2.89303C133.534 3.04344 133.702 3.16504 133.889 3.25099C133.931 3.27081 133.975 3.28678 134.02 3.29871C134.046 3.30758 134.071 3.31644 134.099 3.32462C134.095 3.36608 134.093 3.40775 134.094 3.4494C134.094 3.51281 134.094 3.57553 134.088 3.63144L134.248 3.65053C134.248 3.59599 134.253 3.5394 134.255 3.48758C134.255 3.46471 134.256 3.44182 134.261 3.4194V3.31235C134.261 3.24417 134.261 3.18008 134.266 3.1078V2.9953C134.266 2.92712 134.266 2.85894 134.271 2.79076V2.75326C134.271 2.72803 134.277 2.70348 134.277 2.68508V2.61689H134.475V2.79417C134.489 2.81121 134.505 2.82621 134.519 2.84462C134.52 2.84452 134.521 2.84457 134.521 2.84477C134.522 2.84496 134.523 2.8453 134.523 2.84575C134.524 2.8462 134.524 2.84677 134.524 2.8474C134.525 2.84802 134.525 2.8487 134.525 2.84939C134.598 2.9278 134.672 3.01439 134.744 3.09553C134.765 3.12144 134.787 3.14667 134.807 3.16917C134.813 3.17297 134.817 3.17812 134.821 3.18417C134.829 3.1933 134.837 3.20286 134.844 3.2128C134.898 3.27553 134.952 3.34031 134.999 3.40508C135.06 3.36834 135.117 3.32563 135.17 3.27758C135.217 3.23588 135.26 3.18874 135.297 3.13712C135.315 3.11306 135.332 3.08802 135.348 3.06212C135.369 3.02709 135.388 2.9909 135.405 2.95371C135.415 2.9278 135.428 2.90326 135.438 2.87803C135.445 2.86634 135.45 2.85371 135.453 2.84053C135.472 2.78917 135.493 2.73887 135.518 2.68985C135.549 2.6101 135.606 2.54253 135.678 2.49689C135.661 2.44745 135.633 2.40248 135.597 2.3653M132.869 9.38806L132.753 9.26329C132.726 9.23329 132.702 9.20465 132.677 9.17942C132.677 9.1726 132.667 9.16647 132.663 9.16033L131.931 9.77397L134.185 12.2892L134.273 12.2149L135.603 11.0899C135.168 10.9654 134.749 10.7882 134.356 10.5622C133.882 10.2893 133.443 9.9576 133.051 9.57488C133.042 9.5659 133.033 9.55584 133.026 9.54488C132.993 9.51624 132.965 9.48829 132.937 9.4576C132.913 9.43625 132.89 9.41348 132.869 9.38942M131.265 10.301L131.255 10.3099L131.921 10.8451L133.557 12.1672L133.682 12.0213L132.01 10.1469L131.963 10.0972C131.963 10.0972 131.95 10.0924 131.955 10.0842L131.774 9.87965L131.264 10.2983L131.265 10.301ZM131.201 11.199L131.225 11.2058L132.69 11.7662L132.806 11.8106L131.461 10.7394L131.399 10.6917L131.201 11.199ZM121.004 21.0479C120.947 20.8011 120.888 20.5386 120.829 20.3347L120.376 18.7597L119.74 16.5485C119.601 16.0644 119.576 15.5548 119.667 15.0595C119.759 14.5643 119.964 14.0969 120.266 13.6943C120.569 13.2916 120.96 12.9646 121.411 12.7389C121.861 12.5132 122.357 12.395 122.861 12.3935C123.017 12.394 123.173 12.4051 123.328 12.4269C123.433 12.4165 123.537 12.4006 123.641 12.3792C123.691 12.369 123.741 12.3542 123.789 12.3349C123.826 12.3233 123.865 12.3097 123.899 12.2953C123.968 12.2694 124.036 12.2388 124.111 12.2047C124.232 12.1501 124.358 12.0963 124.478 12.0465C125.062 11.7866 125.679 11.6076 126.312 11.5147C127.096 11.4031 127.894 11.4157 128.675 11.5522C129.139 11.6345 129.595 11.7629 130.034 11.9353C130.2 11.9943 130.372 12.0399 130.546 12.0717C130.828 12.0717 130.853 11.7744 131.202 11.7744C131.366 11.8118 131.525 11.8695 131.675 11.9463C131.675 11.9463 131.628 12.0144 131.626 12.0144C130.983 13.06 130.505 14.1974 130.206 15.3874C130.199 15.4079 130.193 15.4289 130.188 15.4501L130.145 15.6254C130.145 15.6254 134.787 17.4956 134.799 17.5045C134.831 17.4247 135.641 15.4706 135.641 15.4706C135.641 15.4706 136.494 16.0651 136.936 16.3283C136.917 16.6838 136.92 17.0402 136.944 17.3954C137.021 18.7801 137.271 20.8331 137.347 21.4706C137.415 21.5504 137.463 21.6281 137.571 21.6281C137.68 21.6281 138.882 21.5013 139.211 21.0574L139.006 18.0131L138.856 15.7822L137.267 11.9933L137.02 11.4056L136.552 12.5292L134.628 17.141L130.478 15.4979C130.478 15.4856 130.484 15.4747 130.484 15.4624C130.484 15.4601 130.484 15.4577 130.485 15.4556C130.487 15.4535 130.488 15.4518 130.49 15.4508C130.492 15.4333 130.496 15.4161 130.503 15.3997C130.813 14.1514 131.323 12.9616 132.014 11.8767C132.033 11.8242 132.046 11.7969 132.046 11.7922C132.046 11.7001 132.051 11.7172 132.024 11.696L130.94 11.2869L131.225 10.5587L130.952 10.3385L131.025 10.2758L131.298 10.0522L131.717 9.7051L132.225 9.28033L132.451 9.09215L132.534 9.02397L132.433 8.88419C132.433 8.88419 132.269 8.66396 132.193 8.54942C132.023 8.29758 131.874 8.03214 131.747 7.75578C131.668 7.57987 131.599 7.40873 131.543 7.23691C131.515 7.17407 131.495 7.10814 131.483 7.04055C131.421 6.82139 131.375 6.59778 131.347 6.37168C131.329 6.24244 131.32 6.11215 131.319 5.98168V5.92918C131.323 5.68008 131.393 5.43657 131.523 5.22418C131.564 5.15116 131.613 5.08376 131.671 5.02372L131.7 4.99849C131.743 4.95022 131.788 4.90467 131.836 4.86213C131.933 4.78246 132.04 4.71576 132.153 4.66372C132.226 4.62097 132.304 4.58644 132.385 4.56077C132.386 4.56077 132.387 4.56026 132.388 4.55937C132.389 4.55847 132.389 4.55726 132.389 4.55599C132.395 4.49395 132.396 4.42645 132.4 4.34326C132.447 4.34804 132.494 4.35622 132.537 4.3644C132.661 4.38375 132.783 4.41457 132.901 4.45645C132.911 4.45806 132.92 4.46105 132.928 4.46531C132.89 4.22736 132.611 4.18099 132.519 4.0494C132.496 4.02408 132.483 3.99139 132.483 3.95735C132.483 3.92643 132.492 3.89624 132.509 3.87008C132.545 3.82912 132.568 3.7775 132.573 3.72281C132.573 3.69718 132.567 3.67189 132.554 3.64985C132.544 3.62687 132.528 3.60705 132.507 3.59258L132.501 3.58712C132.486 3.57632 132.469 3.56674 132.452 3.55849C132.431 3.54144 132.41 3.52508 132.39 3.51212C132.362 3.4869 132.336 3.45962 132.311 3.43508C132.075 3.19609 131.911 2.89517 131.839 2.56712C131.833 2.54121 131.832 2.51667 131.825 2.48735C131.818 2.45803 131.816 2.41916 131.814 2.38507C131.805 2.27426 131.806 2.1628 131.819 2.05234C131.825 2.02098 131.83 1.98416 131.836 1.95212C131.908 1.59112 132.1 1.26514 132.381 1.02689C132.459 0.961584 132.542 0.901456 132.628 0.846885C132.635 0.842971 132.641 0.838154 132.646 0.832567C132.748 0.770422 132.857 0.719229 132.97 0.679838C132.989 0.672145 133.008 0.665767 133.028 0.660747C133.041 0.655572 133.054 0.652351 133.067 0.651202C133.172 0.61793 133.279 0.592631 133.388 0.57552C133.484 0.560988 133.581 0.552561 133.677 0.550292C133.741 0.550292 133.806 0.550292 133.866 0.555065C133.891 0.555065 133.92 0.561883 133.943 0.563929L134.007 0.570065H134.163C134.219 0.570065 134.281 0.565974 134.349 0.565974C134.365 0.588474 134.381 0.608929 134.395 0.634157L134.412 0.65802C134.465 0.750066 134.507 0.835975 134.536 0.892567C134.542 0.90143 134.544 0.906203 134.55 0.909612C134.564 0.932759 134.581 0.953866 134.601 0.97234C134.766 1.12507 135.041 1.1687 135.102 1.30507C135.164 1.44143 135.397 1.91394 135.397 1.91394C135.397 1.91394 135.89 2.47098 135.89 2.49553C135.89 2.60053 135.885 2.64894 135.959 2.7253C136.058 2.69761 136.157 2.66484 136.253 2.62712C136.258 2.54946 136.267 2.47208 136.279 2.3953C136.288 2.37621 136.632 1.92416 136.814 1.93848C136.86 1.93848 137.47 1.88871 137.473 1.88871C138.015 1.46169 138.391 0.858847 138.537 0.184155V0.167791C138.541 0.157098 138.544 0.145863 138.546 0.134382C138.555 0.108343 138.57 0.0849431 138.591 0.0661994C138.625 0.0385993 138.666 0.0199455 138.71 0.0118644C138.754 0.00378333 138.799 0.00651969 138.841 0.019835C138.934 0.0414042 139.024 0.0758262 139.107 0.122108C139.256 0.207634 139.394 0.311642 139.516 0.431655C139.557 0.471883 139.592 0.507338 139.626 0.546883C139.703 0.633344 139.771 0.727207 139.83 0.827111C139.88 0.892018 139.915 0.967619 139.932 1.04811C139.949 1.1286 139.947 1.21184 139.926 1.29143L139.911 1.31257C139.479 1.99015 138.828 2.49933 138.067 2.7553C138.046 2.76447 138.025 2.77566 138.006 2.78871C138.157 2.93405 138.269 3.11574 138.33 3.31644H139.137V5.63463C139.137 5.67077 139.131 5.70282 139.129 5.73554C139.127 5.76827 139.121 5.80372 139.113 5.84122C139.107 5.86236 139.105 5.88418 139.098 5.90941C139.069 6.01193 139.027 6.10994 138.971 6.20054C138.959 6.22032 138.944 6.23668 138.932 6.25714C138.845 6.37598 138.735 6.47637 138.609 6.55255C138.482 6.62873 138.342 6.67918 138.196 6.701C138.143 6.70987 138.088 6.71327 138.032 6.71736H136.912L138.732 8.76283C138.732 8.76283 138.19 9.20669 138.003 9.38192C138.085 9.49974 138.179 9.60853 138.284 9.70647C138.408 9.7801 139.18 9.84283 139.12 10.2124C139.114 10.2551 139.104 10.2971 139.09 10.3378C139.002 10.5171 138.894 10.6863 138.77 10.8424C138.644 11.0053 138.381 11.0197 138.293 11.2903C138.425 11.3787 138.526 11.5076 138.579 11.6578C139.02 11.1449 139.41 10.59 139.743 10.001C140.678 10.2376 142.93 11.4928 143.521 11.6769C143.942 11.7903 144.371 11.8726 144.803 11.9231C144.746 12.0621 144.706 12.2078 144.684 12.3567C144.689 12.4113 144.868 12.4631 145.074 12.5872C145.184 12.6517 145.285 12.7314 145.373 12.8238C145.33 13.3405 145.405 13.8604 145.591 14.3442C145.661 14.5099 145.721 14.6798 145.769 14.8529C145.787 14.9074 145.799 14.9619 145.814 15.0206C145.843 15.1481 145.868 15.2797 145.89 15.4154C145.915 15.5872 145.933 15.761 145.941 15.937C145.941 15.9826 145.947 16.0283 145.947 16.0733V16.2697C145.948 16.3111 145.946 16.3526 145.941 16.3938C145.931 16.6104 145.908 16.8262 145.873 17.0401C145.863 17.0858 145.855 17.1322 145.844 17.182C145.831 17.2447 145.818 17.3183 145.801 17.377C145.744 17.614 145.667 17.8459 145.572 18.0704C145.56 18.0923 145.549 18.1151 145.54 18.1386C145.534 18.1556 145.528 18.1679 145.524 18.1815C145.52 18.1878 145.516 18.1947 145.514 18.202C145.491 18.1979 145.469 18.1876 145.446 18.1815C145.304 18.1339 145.169 18.0715 145.041 17.9954C144.957 17.9429 144.876 17.8883 144.798 17.8276C144.716 17.7628 144.64 17.6922 144.569 17.6163C144.704 17.905 144.905 18.1579 145.156 18.3547C145.198 18.3861 145.244 18.4229 145.292 18.4536C145.326 18.4703 145.361 18.4842 145.397 18.4951C145.403 18.4951 146.014 18.6915 146.138 18.7167C146.801 18.8215 147.456 18.9689 148.101 19.1579C148.206 19.1933 148.401 18.9533 148.987 19.0004C149.245 19.0305 149.485 19.1463 149.669 19.3293C149.854 19.5123 149.971 19.7518 150.003 20.0095C149.991 20.3981 149.825 20.4922 149.77 20.7165C149.701 21.0036 149.253 23.4615 149.204 23.8911C149.172 24.1638 149.164 24.5538 149.164 24.5586C149.164 24.5981 149.272 25.0604 149.281 25.2172C149.281 25.2486 149.287 25.2697 149.287 25.3011C149.287 25.3719 149.281 25.4426 149.269 25.5124C149.252 25.6585 149.205 25.7995 149.132 25.9269C149.059 26.0543 148.96 26.1654 148.842 26.2536C148.837 26.2679 148.834 26.2829 148.828 26.2972C148.795 26.4165 148.754 26.5359 148.714 26.6552C148.493 27.2567 148.149 27.8048 147.702 28.2636L147.689 28.2431L146.798 26.5386L146.787 26.5195C146.978 26.1633 147.222 25.8382 147.511 25.5554C147.548 25.515 147.587 25.4765 147.627 25.4402C147.717 25.357 147.811 25.2772 147.906 25.1995C147.906 25.1736 147.9 25.1456 147.9 25.1211C147.901 24.9583 147.934 24.7972 147.999 24.6477C148.063 24.4981 148.157 24.3632 148.275 24.2511C148.31 24.2166 148.346 24.1842 148.385 24.1543C148.385 24.0861 148.521 21.5122 148.412 20.5617C148.054 20.5064 147.71 20.3784 147.403 20.1854C147.315 20.1172 144.481 20.3899 144.394 20.3988C144.308 20.4077 144.071 20.2924 143.906 20.2952C143.741 20.2979 143.475 20.3333 143.376 20.3333C143.189 20.3331 143.006 20.2737 142.854 20.1636C142.694 20.0473 142.581 19.8782 142.534 19.6863C142.521 19.6437 142.513 19.5998 142.51 19.5554V19.4579C142.512 19.4273 142.515 19.3968 142.519 19.3665L142.536 19.2738C142.556 19.1974 142.588 19.1242 142.628 19.0563C142.472 19.0104 142.319 18.9504 142.173 18.877C142.036 18.8067 141.904 18.7268 141.777 18.6376C141.47 18.4198 141.208 18.1445 141.006 17.827C140.937 17.7176 140.876 17.6037 140.822 17.486C140.997 18.2046 141.444 18.8272 142.069 19.2226C142.061 19.282 142.055 19.342 142.051 19.4047C142.047 19.5178 142.058 19.631 142.082 19.7415C142.133 19.9798 142.246 20.2001 142.411 20.3797C142.602 20.5906 142.851 20.7399 143.127 20.8086C142.901 21.6424 142.405 23.0722 142.405 23.1745C142.197 23.8189 141.933 24.4442 141.618 25.0434C141.573 25.6657 141.482 26.2838 141.345 26.8925C141.324 27.026 141.312 27.1609 141.311 27.2961C141.311 27.4031 141.254 28.0625 141.215 29.1247C141.215 29.2154 141.18 29.2297 141.18 29.3361C141.185 29.4248 141.215 29.5102 141.266 29.5829C141.266 29.587 141.275 29.5932 141.278 29.5993C141.315 29.6497 141.354 29.6982 141.39 29.7479C141.439 29.8161 141.488 29.8843 141.535 29.9525C141.645 30.1162 141.744 30.2868 141.831 30.4632C141.876 30.5518 141.916 30.6397 141.955 30.727C141.977 30.7647 141.996 30.8047 142.01 30.8463C142.165 31.2295 142.27 31.6309 142.323 32.0409H140.229C140.253 31.9194 140.268 31.7963 140.274 31.6727C140.288 31.1945 140.179 30.7207 139.959 30.2961C139.879 30.0808 139.764 29.8805 139.618 29.7036C139.648 29.3974 139.704 29.0943 139.785 28.7975C139.912 28.4504 140.072 28.1163 140.262 27.8C140.262 27.8 140.395 25.2772 140.395 25.1709C140.395 25.0645 140.215 24.1536 140.141 23.6886C140.076 23.2013 139.938 22.7267 139.732 22.2806C139.683 22.1886 139.958 21.9308 140.041 21.7761L139.99 21.7263C139.977 21.7267 139.965 21.7283 139.953 21.7311C139.843 21.8265 137.821 22.4354 137.821 22.4354C137.635 22.1865 137.426 21.9568 137.195 21.7495C136.305 21.6828 135.42 21.569 134.543 21.4086C133.285 21.1811 132.048 20.8509 130.845 20.4213C130.64 20.3463 130.44 20.2665 130.249 20.1915C130.24 20.2006 130.233 20.2112 130.228 20.2229V20.3292C130.227 20.4679 130.217 20.6064 130.198 20.7438C130.146 21.2706 130.005 21.7848 129.781 22.2643C129.685 22.4697 129.567 22.664 129.43 22.8438L129.404 22.8943C129.498 23.0812 129.566 23.2795 129.609 23.484C129.638 23.6132 129.658 23.7442 129.669 23.8761C129.68 24.0384 129.68 24.2013 129.669 24.3636C130.534 25.4063 131.325 26.508 132.037 27.6609C132.043 27.669 132.048 27.6774 132.053 27.6861C132.211 27.784 132.341 27.9225 132.428 28.0873C132.516 28.2521 132.558 28.4372 132.55 28.6236C132.548 28.7401 132.532 28.8559 132.503 28.9686C132.467 29.0944 132.41 29.2128 132.333 29.3184C132.363 29.4404 132.389 29.557 132.408 29.6832C132.451 29.9486 132.467 30.2177 132.456 30.4863V30.5116C132.438 30.9104 132.359 31.3041 132.221 31.6788C132.189 31.7531 132.152 31.8251 132.11 31.8943L130.514 30.5934L130.475 30.5641C130.547 30.3724 130.633 30.1859 130.73 30.0057C130.834 29.8153 130.948 29.6307 131.071 29.4527C130.882 29.2651 130.762 29.0187 130.73 28.7538C130.725 28.7072 130.723 28.6603 130.724 28.6134C130.724 28.5738 130.729 28.5281 130.73 28.4859C130.741 28.2058 130.83 27.9345 130.988 27.7025C130.793 27.3616 130.324 26.6913 130.176 26.5038C129.896 26.1518 129.588 25.823 129.254 25.5206C129.027 25.407 128.787 25.3224 128.539 25.269C128.578 25.2738 128.52 25.265 128.539 25.269C128.42 25.2561 128.048 25.1954 128.048 25.1954L127.486 25.0979L127.451 25.0931L127.587 24.6534C127.587 24.6459 127.593 24.637 127.593 24.6247C127.612 24.4614 127.612 24.2964 127.593 24.1331C127.579 24.0177 127.552 23.9044 127.511 23.7956C127.497 23.7581 127.479 23.7274 127.464 23.6886C127.442 23.6461 127.418 23.6049 127.391 23.5652C127.382 23.5562 127.374 23.5464 127.368 23.5359C127.17 23.2747 126.715 22.6924 126.638 22.6031C126.654 22.5868 126.669 22.5649 126.682 22.5506L126.705 22.524C127.006 22.1498 127.263 21.7418 127.47 21.3083C127.571 21.0956 127.659 20.8776 127.736 20.6552C127.833 20.3742 127.91 20.0867 127.966 19.7947C127.995 19.6583 128.018 19.522 128.04 19.3801C128.039 19.3672 128.041 19.3542 128.045 19.342C128.14 19.2792 128.232 19.2104 128.318 19.1374C128.569 18.9383 128.791 18.7062 128.979 18.4474C129.098 18.2874 129.202 18.1172 129.291 17.9388L129.345 17.8263C129.324 17.859 129.302 17.8945 129.277 17.9265C128.972 18.3569 128.578 18.7167 128.122 18.9813L128.075 19.0051C128.036 19.0302 127.996 19.0529 127.955 19.0733C127.864 19.1213 127.771 19.1639 127.676 19.2008C127.658 19.3331 127.634 19.4606 127.608 19.5861C127.567 19.7729 127.52 19.9501 127.466 20.1281C127.42 20.2836 127.364 20.4363 127.306 20.5842C127.212 20.8291 127.102 21.0674 126.976 21.2974C126.836 21.5607 126.674 21.8126 126.494 22.0508C126.447 22.1095 126.406 22.1661 126.362 22.2179C126.009 22.6529 125.592 23.0312 125.124 23.3395C124.873 23.5037 124.608 23.6438 124.331 23.7581C124.25 23.7909 124.172 23.8263 124.092 23.8502C123.946 24.1767 123.724 24.4632 123.444 24.6854C123.294 24.7885 123.159 24.9114 123.043 25.0509C122.848 25.3663 122.702 25.7089 122.608 26.0675C122.447 26.6526 122.32 27.2466 122.227 27.8463C122.227 27.9466 122.184 28.3768 122.184 28.4818C122.184 28.5868 122.488 29.6054 122.488 29.7166C122.488 29.7218 122.488 29.7271 122.49 29.7321C122.492 29.737 122.495 29.7415 122.499 29.7452C122.959 30.0922 123.32 30.554 123.545 31.0843C123.682 31.3876 123.774 31.7091 123.818 32.0388H122.038C121.994 31.7535 121.921 31.4733 121.822 31.2022C121.655 30.7446 121.411 30.3191 121.1 29.9443C121.033 29.8611 120.961 29.7821 120.884 29.7077C120.855 29.6557 120.84 29.5974 120.839 29.5379C120.835 29.5276 120.833 29.5164 120.834 29.5052C120.877 29.1383 120.971 28.7792 121.113 28.4381C121.169 28.3336 121.208 28.2204 121.227 28.1034C121.227 27.9991 121.405 25.8984 121.392 25.8213C121.216 25.2862 120.986 24.7707 120.704 24.2831C120.807 24.1496 120.921 24.0251 121.045 23.9109C121.317 23.7048 121.517 23.4165 121.613 23.0886C121.632 22.9965 121.709 22.9883 121.709 22.884C121.713 22.8492 121.705 22.8142 121.687 22.7838C121.285 23.0841 120.795 23.2454 120.293 23.2434C120.596 22.9943 120.826 22.6666 120.956 22.2961C121.087 21.9256 121.113 21.5264 121.032 21.142C121.026 21.1079 121.02 21.0738 121.011 21.0452" fill="white"/>
<path d="M0 31.7763V6.19849H13.0719V10.5206H4.77207V16.3999H11.1V20.722H4.77207V27.4529H13.4176V31.775L0 31.7763Z" fill="white"/>
<path d="M25.7618 13.3195C25.4993 12.3473 25.0137 11.4496 24.3436 10.6979C24.0708 10.4287 23.7464 10.2174 23.3898 10.0768C23.0332 9.93621 22.6519 9.86916 22.2688 9.87971C21.9087 9.85544 21.5476 9.90936 21.2103 10.0378C20.873 10.1662 20.5675 10.366 20.3147 10.6236C19.8377 11.1984 19.5967 11.9329 19.6404 12.6786C19.643 12.9999 19.7154 13.3169 19.8527 13.6075C19.99 13.898 20.1888 14.1553 20.4354 14.3613C21.0392 14.8984 21.7002 15.3676 22.4065 15.7604C23.1902 16.2095 24.0431 16.6868 24.9654 17.1922C25.88 17.6952 26.7379 18.295 27.5243 18.9813C28.3165 19.6772 28.9832 20.504 29.4954 21.4257C30.05 22.4715 30.3239 23.6433 30.2904 24.8266C30.3075 25.8582 30.1267 26.8835 29.7579 27.8471C29.4166 28.7205 28.8851 29.5071 28.202 30.1496C27.4801 30.8119 26.6255 31.313 25.695 31.6196C24.6131 31.976 23.4794 32.1495 22.3404 32.133C20.505 32.175 18.7128 31.5734 17.2745 30.4325C15.8567 29.2989 14.8251 27.4684 14.1797 24.9411L18.8843 23.9136C18.9916 24.5945 19.1955 25.2566 19.4897 25.88C19.718 26.3615 20.0281 26.7998 20.4061 27.1755C20.7174 27.4838 21.0887 27.7249 21.497 27.8839C21.8449 28.0196 22.2145 28.0917 22.5879 28.0966C23.1701 28.0732 23.7336 27.8841 24.2122 27.5517C24.6907 27.2192 25.0645 26.7571 25.2897 26.2197C25.5148 25.6822 25.5819 25.0917 25.4832 24.5174C25.3845 23.9431 25.124 23.4089 24.7322 22.9775C24.149 22.3558 23.4862 21.8138 22.7611 21.3657C21.977 20.8698 21.124 20.3798 20.2022 19.8957C19.298 19.4237 18.4412 18.8661 17.6433 18.2307C16.8705 17.617 16.2045 16.8798 15.6722 16.0488C15.1173 15.1317 14.8411 14.0731 14.8772 13.0018C14.8241 12.0461 14.9636 11.0896 15.2873 10.1889C15.6111 9.28821 16.1124 8.46174 16.7617 7.75856C18.0177 6.4831 19.8908 5.84537 22.3813 5.84537C23.3575 5.8317 24.3288 5.98742 25.2518 6.3056C26.075 6.59559 26.8377 7.03474 27.5018 7.60106C28.1481 8.15765 28.6922 8.82288 29.1095 9.56675C29.5439 10.3434 29.8642 11.1786 30.0607 12.0465L25.7618 13.3195Z" fill="white"/>
<path d="M46.8993 6.19849V10.5206H41.3288V31.7763H36.556V10.5206H30.9883V6.19849H46.8993Z" fill="white"/>
<path d="M43.7773 31.7761L49.9669 6.19824H56.0876L62.1047 31.7761H57.5406L56.3304 26.3897H49.7256L48.3769 31.7761H43.7773ZM50.5894 22.069H55.3267L53.0085 11.7244H52.9403L50.5894 22.069Z" fill="white"/>
<path d="M63.1101 6.1982H69.7496C70.9769 6.17977 72.2002 6.34056 73.381 6.67548C74.3906 6.96588 75.3154 7.49485 76.0776 8.21776C76.8536 8.98763 77.4395 9.92771 77.789 10.9634C78.226 12.2835 78.4535 13.6639 78.4633 15.0544V22.9199C78.4536 24.3104 78.2261 25.6907 77.789 27.0108C77.4397 28.0466 76.8537 28.9867 76.0776 29.7565C75.3151 30.479 74.39 31.0075 73.3803 31.2974C72.1995 31.6322 70.9762 31.7929 69.749 31.7747H63.1094L63.1101 6.1982ZM67.8828 27.454H69.543C70.1025 27.4881 70.663 27.4066 71.1896 27.2146C71.7162 27.0226 72.1976 26.7241 72.6037 26.3378C73.331 25.5937 73.6946 24.2653 73.6946 22.3526V15.6217C73.6946 13.8035 73.3776 12.4985 72.7435 11.7066C72.1094 10.9148 71.0433 10.5191 69.5451 10.5196H67.8848L67.8828 27.454Z" fill="white"/>
<path d="M78.3945 31.7776L84.5848 6.1998H90.7055L96.7226 31.7776H92.1578L90.9475 26.3913H84.3427L82.9941 31.7776H78.3945ZM93.8869 0C93.7769 0.547597 93.6268 1.08633 93.4375 1.61183C93.2648 2.09673 93.0262 2.55558 92.7285 2.97547C92.4431 3.37338 92.0698 3.70004 91.6375 3.93002C91.1452 4.17903 90.5984 4.30091 90.0469 4.28456C89.5854 4.28421 89.1263 4.21856 88.6832 4.08956C88.2337 3.96002 87.8018 3.81843 87.3878 3.66479C86.9737 3.51115 86.5646 3.36956 86.1605 3.24002C85.7753 3.11322 85.3727 3.04743 84.9673 3.04501C84.7722 3.03594 84.5776 3.07109 84.398 3.14783C84.2184 3.22458 84.0585 3.34093 83.9302 3.4882C83.6737 3.78847 83.4955 4.14755 83.4114 4.53343H81.2295C81.3187 3.97713 81.4635 3.4312 81.6618 2.90388C81.8459 2.40492 82.1085 1.93859 82.4398 1.52251C82.7558 1.1274 83.1505 0.802332 83.5989 0.567957C84.0979 0.320753 84.6499 0.199274 85.2066 0.214093C85.6694 0.214689 86.1293 0.286436 86.5702 0.42682C87.0198 0.568639 87.4516 0.716139 87.8657 0.869322C88.2798 1.0225 88.6718 1.17023 89.0419 1.31251C89.3491 1.44124 89.6771 1.51331 90.01 1.52524C90.207 1.52871 90.4025 1.49109 90.5841 1.41479C90.7657 1.33848 90.9295 1.22516 91.0648 1.08205C91.3545 0.78409 91.5525 0.409248 91.6355 0.00204564L93.8869 0ZM85.2073 22.0706H89.9446L87.6264 11.726H87.5582L85.2073 22.0706Z" fill="white"/>
<path d="M96.7968 14.4148C96.7623 13.0564 96.9614 11.7022 97.3852 10.4112C97.7183 9.41894 98.2741 8.51611 99.01 7.77185C99.7125 7.09246 100.566 6.58876 101.5 6.30185C103.576 5.6878 105.786 5.6878 107.863 6.30185C108.797 6.58874 109.65 7.09244 110.353 7.77185C111.088 8.51632 111.644 9.41909 111.978 10.4112C112.401 11.7023 112.6 13.0565 112.565 14.4148V23.5574C112.6 24.9155 112.401 26.2695 111.978 27.5604C111.644 28.5525 111.089 29.4553 110.353 30.1997C109.65 30.8793 108.797 31.383 107.863 31.6697C105.786 32.2837 103.576 32.2837 101.5 31.6697C100.566 31.383 99.7124 30.8792 99.01 30.1997C98.274 29.4555 97.7182 28.5527 97.3852 27.5604C96.9613 26.2696 96.7623 24.9156 96.7968 23.5574V14.4148ZM101.57 24.1928C101.57 25.6101 101.846 26.5667 102.399 27.0626C103.062 27.546 103.861 27.8065 104.682 27.8065C105.502 27.8065 106.301 27.546 106.964 27.0626C107.517 26.5667 107.794 25.6101 107.794 24.1928V13.7801C107.794 12.3628 107.517 11.4064 106.964 10.911C106.301 10.4274 105.502 10.1668 104.682 10.1668C103.861 10.1668 103.062 10.4274 102.399 10.911C101.846 11.4069 101.57 12.3632 101.57 13.7801V24.1928Z" fill="white"/>
</svg>
