<svg width="243" height="243" viewBox="0 0 243 243" fill="none" xmlns="http://www.w3.org/2000/svg">
<path d="M185.726 121.221C185.726 156.451 156.977 185.021 121.5 185.021C86.0223 185.021 57.2734 156.451 57.2734 121.221C57.2734 85.9914 86.0223 57.421 121.5 57.421C156.977 57.421 185.726 85.9914 185.726 121.221Z" stroke="#C8C8C8" stroke-width="2"/>
<path d="M213.011 121.221C213.011 171.521 172.045 212.305 121.501 212.305C70.9565 212.305 29.9902 171.521 29.9902 121.221C29.9902 70.9209 70.9565 30.1368 121.501 30.1368C172.045 30.1368 213.011 70.9209 213.011 121.221Z" stroke="#C8C8C8" stroke-opacity="0.4" stroke-width="2"/>
<path d="M242 121.221C242 187.533 188.054 241.295 121.5 241.295C54.9464 241.295 1 187.533 1 121.221C1 54.9095 54.9464 1.14734 121.5 1.14734C188.054 1.14734 242 54.9095 242 121.221Z" stroke="#C8C8C8" stroke-opacity="0.3" stroke-width="2"/>
<circle cx="121.928" cy="121.221" r="38.2696" stroke="#FF6F29" stroke-width="1.90292"/>
<g clip-path="url(#clip0_2354_3437)">
<path d="M97.1992 121.221C97.1992 107.564 108.268 96.4946 121.926 96.4946C135.583 96.4946 146.652 107.564 146.652 121.221C146.652 134.878 135.583 145.947 121.926 145.947C108.268 145.947 97.1992 134.878 97.1992 121.221ZM133.11 116.952C134.163 115.899 134.163 114.18 133.11 113.127C132.058 112.074 130.338 112.074 129.285 113.127L118.835 123.578L114.566 119.309C113.513 118.256 111.794 118.256 110.741 119.309C109.688 120.361 109.688 122.081 110.741 123.133L116.922 129.315C117.975 130.368 119.694 130.368 120.747 129.315L133.11 116.952Z" fill="#FF6F29"/>
</g>
<defs>
<clipPath id="clip0_2354_3437">
<rect width="49.4526" height="49.4526" fill="white" transform="translate(97.1992 96.4946)"/>
</clipPath>
</defs>
</svg>
