<svg width="18" height="18" viewBox="0 0 18 18" fill="none" xmlns="http://www.w3.org/2000/svg">
<path d="M9.0013 6.49984C8.33826 6.49984 7.70238 6.76323 7.23353 7.23207C6.76469 7.70091 6.5013 8.3368 6.5013 8.99984C6.5013 9.66288 6.76469 10.2988 7.23353 10.7676C7.70238 11.2364 8.33826 11.4998 9.0013 11.4998C9.66434 11.4998 10.3002 11.2364 10.7691 10.7676C11.2379 10.2988 11.5013 9.66288 11.5013 8.99984C11.5013 8.3368 11.2379 7.70091 10.7691 7.23207C10.3002 6.76323 9.66434 6.49984 9.0013 6.49984ZM9.0013 4.83317C10.1064 4.83317 11.1662 5.27216 11.9476 6.05356C12.729 6.83496 13.168 7.89477 13.168 8.99984C13.168 10.1049 12.729 11.1647 11.9476 11.9461C11.1662 12.7275 10.1064 13.1665 9.0013 13.1665C7.89623 13.1665 6.83643 12.7275 6.05502 11.9461C5.27362 11.1647 4.83464 10.1049 4.83464 8.99984C4.83464 7.89477 5.27362 6.83496 6.05502 6.05356C6.83643 5.27216 7.89623 4.83317 9.0013 4.83317ZM14.418 4.62484C14.418 4.9011 14.3082 5.16606 14.1129 5.36141C13.9175 5.55676 13.6526 5.6665 13.3763 5.6665C13.1 5.6665 12.8351 5.55676 12.6397 5.36141C12.4444 5.16606 12.3346 4.9011 12.3346 4.62484C12.3346 4.34857 12.4444 4.08362 12.6397 3.88827C12.8351 3.69292 13.1 3.58317 13.3763 3.58317C13.6526 3.58317 13.9175 3.69292 14.1129 3.88827C14.3082 4.08362 14.418 4.34857 14.418 4.62484ZM9.0013 2.33317C6.93964 2.33317 6.60297 2.339 5.6438 2.3815C4.99047 2.41234 4.55214 2.49984 4.14547 2.65817C3.7838 2.79817 3.52297 2.96567 3.24547 3.244C2.98464 3.496 2.7841 3.80366 2.6588 4.144C2.50047 4.55234 2.41297 4.98984 2.38297 5.64234C2.33964 6.56234 2.33464 6.884 2.33464 8.99984C2.33464 11.0615 2.34047 11.3982 2.38297 12.3573C2.4138 13.0098 2.5013 13.449 2.6588 13.8548C2.80047 14.2173 2.96714 14.4782 3.2438 14.7548C3.52464 15.0348 3.78547 15.2023 4.1438 15.3407C4.55547 15.4998 4.9938 15.5882 5.6438 15.6182C6.5638 15.6615 6.88547 15.6665 9.0013 15.6665C11.063 15.6665 11.3996 15.6607 12.3588 15.6182C13.0105 15.5873 13.4496 15.4998 13.8563 15.3423C14.2171 15.2015 14.4796 15.034 14.7563 14.7573C15.0371 14.4765 15.2046 14.2157 15.343 13.8573C15.5013 13.4465 15.5896 13.0073 15.6196 12.3573C15.663 11.4373 15.668 11.1157 15.668 8.99984C15.668 6.93817 15.6621 6.6015 15.6196 5.64234C15.5888 4.99067 15.5013 4.55067 15.343 4.144C15.2174 3.80401 15.0172 3.49647 14.7571 3.244C14.5052 2.98304 14.1976 2.78248 13.8571 2.65734C13.4488 2.499 13.0105 2.4115 12.3588 2.3815C11.4388 2.33817 11.1171 2.33317 9.0013 2.33317ZM9.0013 0.666504C11.2655 0.666504 11.548 0.674837 12.4363 0.716504C13.3238 0.758171 13.928 0.897337 14.4596 1.104C15.0096 1.31567 15.473 1.60234 15.9363 2.06484C16.36 2.48142 16.6879 2.98533 16.8971 3.5415C17.103 4.07234 17.243 4.67734 17.2846 5.56484C17.3238 6.45317 17.3346 6.73567 17.3346 8.99984C17.3346 11.264 17.3263 11.5465 17.2846 12.4348C17.243 13.3223 17.103 13.9265 16.8971 14.4582C16.6885 15.0147 16.3606 15.5187 15.9363 15.9348C15.5196 16.3584 15.0157 16.6863 14.4596 16.8957C13.9288 17.1015 13.3238 17.2415 12.4363 17.2832C11.548 17.3223 11.2655 17.3332 9.0013 17.3332C6.73714 17.3332 6.45464 17.3248 5.5663 17.2832C4.6788 17.2415 4.07464 17.1015 3.54297 16.8957C2.98657 16.6869 2.48257 16.359 2.0663 15.9348C1.64247 15.5183 1.31458 15.0144 1.10547 14.4582C0.898802 13.9273 0.759635 13.3223 0.717969 12.4348C0.678802 11.5465 0.667969 11.264 0.667969 8.99984C0.667969 6.73567 0.676302 6.45317 0.717969 5.56484C0.759635 4.6765 0.898802 4.07317 1.10547 3.5415C1.314 2.98499 1.64197 2.48094 2.0663 2.06484C2.48269 1.64086 2.98666 1.31295 3.54297 1.104C4.07464 0.897337 4.67797 0.758171 5.5663 0.716504C6.45464 0.677337 6.73714 0.666504 9.0013 0.666504Z" fill="white"/>
</svg>
