<svg width="17" height="16" viewBox="0 0 17 16" fill="none" xmlns="http://www.w3.org/2000/svg">
<path d="M3.78255 2.16677C3.78233 2.6088 3.60652 3.03263 3.29381 3.34504C2.98109 3.65744 2.55708 3.83282 2.11505 3.8326C1.67302 3.83238 1.24919 3.65657 0.936785 3.34386C0.624381 3.03114 0.448998 2.60713 0.449219 2.1651C0.44944 1.72307 0.625247 1.29924 0.937964 0.986834C1.25068 0.674429 1.67469 0.499047 2.11672 0.499268C2.55875 0.499489 2.98258 0.675295 3.29499 0.988012C3.60739 1.30073 3.78277 1.72474 3.78255 2.16677ZM3.83255 5.06677H0.499219V15.5001H3.83255V5.06677ZM9.09922 5.06677H5.78255V15.5001H9.06589V10.0251C9.06589 6.9751 13.0409 6.69177 13.0409 10.0251V15.5001H16.3326V8.89177C16.3326 3.7501 10.4492 3.94177 9.06589 6.46677L9.09922 5.06677Z" fill="white"/>
</svg>
