<svg width="20" height="20" viewBox="0 0 20 20" fill="none" xmlns="http://www.w3.org/2000/svg">
<path d="M6.04353 15.4116L6.64686 15.7641C7.66431 16.3575 8.82152 16.669 9.99936 16.6666C11.3179 16.6666 12.6068 16.2756 13.7032 15.5431C14.7995 14.8105 15.654 13.7694 16.1586 12.5512C16.6631 11.333 16.7952 9.99256 16.5379 8.69936C16.2807 7.40615 15.6458 6.21826 14.7134 5.28591C13.7811 4.35356 12.5932 3.71863 11.3 3.46139C10.0068 3.20416 8.66631 3.33618 7.44814 3.84076C6.22996 4.34535 5.18877 5.19983 4.45623 6.29616C3.72369 7.39249 3.33269 8.68142 3.33269 9.99996C3.33269 11.1966 3.64686 12.3441 4.23603 13.3533L4.58769 13.9566L4.04353 15.9575L6.04353 15.4116ZM1.66936 18.3333L2.79603 14.1933C2.05364 12.9207 1.66361 11.4733 1.66603 9.99996C1.66603 5.39746 5.39686 1.66663 9.99936 1.66663C14.6019 1.66663 18.3327 5.39746 18.3327 9.99996C18.3327 14.6025 14.6019 18.3333 9.99936 18.3333C8.52667 18.3357 7.07991 17.9459 5.80769 17.2041L1.66936 18.3333ZM6.99186 6.08996C7.10353 6.08163 7.21603 6.08163 7.32769 6.08663C7.37269 6.08996 7.41769 6.09496 7.46269 6.09996C7.59519 6.11496 7.74103 6.19579 7.79019 6.30746C8.03853 6.87079 8.28019 7.43829 8.51353 8.00746C8.56519 8.13413 8.53436 8.29663 8.43603 8.45496C8.3684 8.56202 8.29524 8.6655 8.21686 8.76496C8.12269 8.88579 7.92019 9.10746 7.92019 9.10746C7.92019 9.10746 7.83769 9.20579 7.86936 9.32829C7.88103 9.37496 7.91936 9.44246 7.95436 9.49913L8.00353 9.57829C8.21686 9.93413 8.50353 10.295 8.85353 10.635C8.95353 10.7316 9.05103 10.8308 9.15603 10.9233C9.54603 11.2675 9.98769 11.5483 10.4644 11.7566L10.4685 11.7583C10.5394 11.7891 10.5752 11.8058 10.6785 11.85C10.7302 11.8716 10.7835 11.8908 10.8377 11.905C10.8937 11.9192 10.9526 11.9165 11.0071 11.8972C11.0615 11.878 11.109 11.8429 11.1435 11.7966C11.7469 11.0658 11.8019 11.0183 11.8069 11.0183V11.02C11.8488 10.9809 11.8986 10.9512 11.9529 10.9329C12.0072 10.9147 12.0648 10.9083 12.1219 10.9141C12.1719 10.9175 12.2227 10.9266 12.2694 10.9475C12.7119 11.15 13.436 11.4658 13.436 11.4658L13.921 11.6833C14.0027 11.7225 14.0769 11.815 14.0794 11.9041C14.0827 11.96 14.0877 12.05 14.0685 12.215C14.0419 12.4308 13.9769 12.69 13.9119 12.8258C13.8673 12.9185 13.8083 13.0035 13.7369 13.0775C13.6528 13.1657 13.5607 13.2461 13.4619 13.3175C13.4277 13.3432 13.3929 13.3682 13.3577 13.3925C13.254 13.4582 13.1476 13.5194 13.0385 13.5758C12.824 13.6898 12.587 13.7552 12.3444 13.7675C12.1902 13.7758 12.036 13.7875 11.881 13.7791C11.8744 13.7791 11.4077 13.7066 11.4077 13.7066C10.2229 13.395 9.12718 12.8112 8.20769 12.0016C8.01936 11.8358 7.84519 11.6575 7.66686 11.48C6.92519 10.7425 6.36519 9.94663 6.02519 9.19496C5.85117 8.82603 5.75716 8.42446 5.74936 8.01663C5.74592 7.51067 5.91132 7.01801 6.21936 6.61663C6.28019 6.53829 6.33769 6.45663 6.43686 6.36246C6.54269 6.26246 6.60936 6.20913 6.68186 6.17246C6.77825 6.12415 6.88341 6.09581 6.99103 6.08913L6.99186 6.08996Z" fill="black"/>
</svg>
