<svg width="20" height="15" viewBox="0 0 20 15" fill="none" xmlns="http://www.w3.org/2000/svg">
<path d="M18.8036 2.25468C19.2251 3.8368 19.2251 7.13954 19.2251 7.13954C19.2251 7.13954 19.2251 10.4423 18.8036 12.0244C18.5693 12.8989 17.884 13.587 17.016 13.8196C15.4397 14.2422 10.0012 14.2422 10.0012 14.2422C10.0012 14.2422 4.5656 14.2422 2.98647 13.8196C2.11481 13.5834 1.4304 12.8963 1.19888 12.0244C0.777344 10.4423 0.777344 7.13954 0.777344 7.13954C0.777344 7.13954 0.777344 3.8368 1.19888 2.25468C1.43316 1.38016 2.1185 0.692087 2.98647 0.459474C4.5656 0.0368651 10.0012 0.0368652 10.0012 0.0368652C10.0012 0.0368652 15.4397 0.0368651 17.016 0.459474C17.8877 0.695638 18.5721 1.38282 18.8036 2.25468ZM8.15646 10.247L13.6908 7.13954L8.15646 4.03212V10.247Z" fill="white"/>
</svg>
